<svg width="1732" height="1209" viewBox="0 0 1732 1209" fill="none" id="mask">
<g>
<path id="rectangle2" d="M8 1139H75V1209H0.5L8 1139Z" fill="black"/>
<rect id="rectangle3" x="71" y="1139" width="70" height="70" fill="black"/>
<rect id="rectangle4" x="138" y="1139" width="70" height="70" fill="black"/>
<rect id="rectangle5" x="204" y="1139" width="70" height="70" fill="black"/>
<rect id="rectangle6" x="271" y="1139" width="70" height="70" fill="black"/>
<rect id="rectangle7" x="337" y="1139" width="70" height="70" fill="black"/>
<rect id="rectangle8" x="404" y="1139" width="70" height="70" fill="black"/>
<rect id="rectangle9" x="470" y="1139" width="70" height="70" fill="black"/>
<rect id="rectangle10" x="537" y="1139" width="70" height="70" fill="black"/>
<rect id="rectangle11" x="603" y="1139" width="70" height="70" fill="black"/>
<rect id="rectangle12" x="670" y="1139" width="70" height="70" fill="black"/>
<rect id="rectangle13" x="736" y="1139" width="70" height="70" fill="black"/>
<rect id="rectangle14" x="803" y="1139" width="70" height="70" fill="black"/>
<rect id="rectangle15" x="869" y="1139" width="70" height="70" fill="black"/>
<rect id="rectangle16" x="936" y="1139" width="70" height="70" fill="black"/>
<rect id="rectangle17" x="1002" y="1139" width="70" height="70" fill="black"/>
<rect id="rectangle18" x="1069" y="1139" width="70" height="70" fill="black"/>
<rect id="rectangle19" x="1135" y="1139" width="70" height="70" fill="black"/>
<rect id="rectangle20" x="1202" y="1139" width="70" height="70" fill="black"/>
<rect id="rectangle21" x="1268" y="1139" width="70" height="70" fill="black"/>
<rect id="rectangle22" x="1335" y="1139" width="70" height="70" fill="black"/>
<rect id="rectangle23" x="1401" y="1139" width="70" height="70" fill="black"/>
<rect id="rectangle24" x="1468" y="1139" width="70" height="70" fill="black"/>
<rect id="rectangle25" x="1534" y="1139" width="70" height="70" fill="black"/>
<rect id="rectangle26" x="1601" y="1139" width="70" height="70" fill="black"/>
<path id="rectangle27" d="M1667 1139H1732V1209H1667V1139Z" fill="black"/>
<path id="rectangle28" d="M15.5 1073H75V1143H7.5L15.5 1073Z" fill="black"/>
<rect id="rectangle29" x="71" y="1073" width="70" height="70" fill="black"/>
<rect id="rectangle30" x="138" y="1073" width="70" height="70" fill="black"/>
<rect id="rectangle31" x="204" y="1073" width="70" height="70" fill="black"/>
<rect id="rectangle32" x="271" y="1073" width="70" height="70" fill="black"/>
<rect id="rectangle33" x="337" y="1073" width="70" height="70" fill="black"/>
<rect id="rectangle34" x="404" y="1073" width="70" height="70" fill="black"/>
<rect id="rectangle35" x="470" y="1073" width="70" height="70" fill="black"/>
<rect id="rectangle36" x="537" y="1073" width="70" height="70" fill="black"/>
<rect id="rectangle37" x="603" y="1073" width="70" height="70" fill="black"/>
<rect id="rectangle38" x="670" y="1073" width="70" height="70" fill="black"/>
<rect id="rectangle39" x="736" y="1073" width="70" height="70" fill="black"/>
<rect id="rectangle40" x="803" y="1073" width="70" height="70" fill="black"/>
<rect id="rectangle41" x="869" y="1073" width="70" height="70" fill="black"/>
<rect id="rectangle42" x="936" y="1073" width="70" height="70" fill="black"/>
<rect id="rectangle43" x="1002" y="1073" width="70" height="70" fill="black"/>
<rect id="rectangle44" x="1069" y="1073" width="70" height="70" fill="black"/>
<rect id="rectangle45" x="1135" y="1073" width="70" height="70" fill="black"/>
<rect id="rectangle46" x="1202" y="1073" width="70" height="70" fill="black"/>
<rect id="rectangle47" x="1268" y="1073" width="70" height="70" fill="black"/>
<rect id="rectangle48" x="1335" y="1073" width="70" height="70" fill="black"/>
<rect id="rectangle49" x="1401" y="1073" width="70" height="70" fill="black"/>
<rect id="rectangle50" x="1468" y="1073" width="70" height="70" fill="black"/>
<rect id="rectangle51" x="1534" y="1073" width="70" height="70" fill="black"/>
<rect id="rectangle52" x="1601" y="1073" width="70" height="70" fill="black"/>
<path id="rectangle53" d="M1667 1073H1732V1143H1667V1073Z" fill="black"/>
<path id="rectangle54" d="M23 1007H75V1077H15L23 1007Z" fill="black"/>
<rect id="rectangle55" x="71" y="1007" width="70" height="70" fill="black"/>
<rect id="rectangle56" x="138" y="1007" width="70" height="70" fill="black"/>
<rect id="rectangle57" x="204" y="1007" width="70" height="70" fill="black"/>
<rect id="rectangle58" x="271" y="1007" width="70" height="70" fill="black"/>
<rect id="rectangle59" x="337" y="1007" width="70" height="70" fill="black"/>
<rect id="rectangle60" x="404" y="1007" width="70" height="70" fill="black"/>
<rect id="rectangle61" x="470" y="1007" width="70" height="70" fill="black"/>
<rect id="rectangle62" x="537" y="1007" width="70" height="70" fill="black"/>
<rect id="rectangle63" x="603" y="1007" width="70" height="70" fill="black"/>
<rect id="rectangle64" x="670" y="1007" width="70" height="70" fill="black"/>
<rect id="rectangle65" x="736" y="1007" width="70" height="70" fill="black"/>
<rect id="rectangle66" x="803" y="1007" width="70" height="70" fill="black"/>
<rect id="rectangle67" x="869" y="1007" width="70" height="70" fill="black"/>
<rect id="rectangle68" x="936" y="1007" width="70" height="70" fill="black"/>
<rect id="rectangle69" x="1002" y="1007" width="70" height="70" fill="black"/>
<rect id="rectangle70" x="1069" y="1007" width="70" height="70" fill="black"/>
<rect id="rectangle71" x="1135" y="1007" width="70" height="70" fill="black"/>
<rect id="rectangle72" x="1202" y="1007" width="70" height="70" fill="black"/>
<rect id="rectangle73" x="1268" y="1007" width="70" height="70" fill="black"/>
<rect id="rectangle74" x="1335" y="1007" width="70" height="70" fill="black"/>
<rect id="rectangle75" x="1401" y="1007" width="70" height="70" fill="black"/>
<rect id="rectangle76" x="1468" y="1007" width="70" height="70" fill="black"/>
<rect id="rectangle77" x="1534" y="1007" width="70" height="70" fill="black"/>
<rect id="rectangle78" x="1601" y="1007" width="70" height="70" fill="black"/>
<path id="rectangle79" d="M1667 1007H1732V1077H1667V1007Z" fill="black"/>
<path id="rectangle80" d="M30 941H75V1011H22L30 941Z" fill="black"/>
<rect id="rectangle81" x="71" y="941" width="70" height="70" fill="black"/>
<rect id="rectangle82" x="138" y="941" width="70" height="70" fill="black"/>
<rect id="rectangle83" x="204" y="941" width="70" height="70" fill="black"/>
<rect id="rectangle84" x="271" y="941" width="70" height="70" fill="black"/>
<rect id="rectangle85" x="337" y="941" width="70" height="70" fill="black"/>
<rect id="rectangle86" x="404" y="941" width="70" height="70" fill="black"/>
<rect id="rectangle87" x="470" y="941" width="70" height="70" fill="black"/>
<rect id="rectangle88" x="537" y="941" width="70" height="70" fill="black"/>
<rect id="rectangle89" x="603" y="941" width="70" height="70" fill="black"/>
<rect id="rectangle90" x="670" y="941" width="70" height="70" fill="black"/>
<rect id="rectangle91" x="736" y="941" width="70" height="70" fill="black"/>
<rect id="rectangle92" x="803" y="941" width="70" height="70" fill="black"/>
<rect id="rectangle93" x="869" y="941" width="70" height="70" fill="black"/>
<rect id="rectangle94" x="936" y="941" width="70" height="70" fill="black"/>
<rect id="rectangle95" x="1002" y="941" width="70" height="70" fill="black"/>
<rect id="rectangle96" x="1069" y="941" width="70" height="70" fill="black"/>
<rect id="rectangle97" x="1135" y="941" width="70" height="70" fill="black"/>
<rect id="rectangle98" x="1202" y="941" width="70" height="70" fill="black"/>
<rect id="rectangle99" x="1268" y="941" width="70" height="70" fill="black"/>
<rect id="rectangle100" x="1335" y="941" width="70" height="70" fill="black"/>
<rect id="rectangle101" x="1401" y="941" width="70" height="70" fill="black"/>
<rect id="rectangle102" x="1468" y="941" width="70" height="70" fill="black"/>
<rect id="rectangle103" x="1534" y="941" width="70" height="70" fill="black"/>
<rect id="rectangle104" x="1601" y="941" width="70" height="70" fill="black"/>
<path id="rectangle105" d="M1667 941H1732V1011H1667V941Z" fill="black"/>
<path id="rectangle106" d="M46 875H75V945H29.5L46 875Z" fill="black"/>
<rect id="rectangle107" x="71" y="875" width="70" height="70" fill="black"/>
<rect id="rectangle108" x="138" y="875" width="70" height="70" fill="black"/>
<rect id="rectangle109" x="204" y="875" width="70" height="70" fill="black"/>
<rect id="rectangle110" x="271" y="875" width="70" height="70" fill="black"/>
<rect id="rectangle111" x="337" y="875" width="70" height="70" fill="black"/>
<rect id="rectangle112" x="404" y="875" width="70" height="70" fill="black"/>
<rect id="rectangle113" x="470" y="875" width="70" height="70" fill="black"/>
<rect id="rectangle114" x="537" y="875" width="70" height="70" fill="black"/>
<rect id="rectangle115" x="603" y="875" width="70" height="70" fill="black"/>
<rect id="rectangle116" x="670" y="875" width="70" height="70" fill="black"/>
<rect id="rectangle117" x="736" y="875" width="70" height="70" fill="black"/>
<rect id="rectangle118" x="803" y="875" width="70" height="70" fill="black"/>
<rect id="rectangle119" x="869" y="875" width="70" height="70" fill="black"/>
<rect id="rectangle120" x="936" y="875" width="70" height="70" fill="black"/>
<rect id="rectangle121" x="1002" y="875" width="70" height="70" fill="black"/>
<rect id="rectangle122" x="1069" y="875" width="70" height="70" fill="black"/>
<rect id="rectangle123" x="1135" y="875" width="70" height="70" fill="black"/>
<rect id="rectangle124" x="1202" y="875" width="70" height="70" fill="black"/>
<rect id="rectangle125" x="1268" y="875" width="70" height="70" fill="black"/>
<rect id="rectangle126" x="1335" y="875" width="70" height="70" fill="black"/>
<rect id="rectangle127" x="1401" y="875" width="70" height="70" fill="black"/>
<rect id="rectangle128" x="1468" y="875" width="70" height="70" fill="black"/>
<rect id="rectangle129" x="1534" y="875" width="70" height="70" fill="black"/>
<rect id="rectangle130" x="1601" y="875" width="70" height="70" fill="black"/>
<path id="rectangle131" d="M1667 875H1732V945H1667V875Z" fill="black"/>
<path id="rectangle132" d="M71 809H141V879H45.0748L46 875L71 809Z" fill="black"/>
<rect id="rectangle133" x="138" y="809" width="70" height="70" fill="black"/>
<rect id="rectangle134" x="204" y="809" width="70" height="70" fill="black"/>
<rect id="rectangle135" x="271" y="809" width="70" height="70" fill="black"/>
<rect id="rectangle136" x="337" y="809" width="70" height="70" fill="black"/>
<rect id="rectangle137" x="404" y="809" width="70" height="70" fill="black"/>
<rect id="rectangle138" x="470" y="809" width="70" height="70" fill="black"/>
<rect id="rectangle139" x="537" y="809" width="70" height="70" fill="black"/>
<rect id="rectangle140" x="603" y="809" width="70" height="70" fill="black"/>
<rect id="rectangle141" x="670" y="809" width="70" height="70" fill="black"/>
<rect id="rectangle142" x="736" y="809" width="70" height="70" fill="black"/>
<rect id="rectangle143" x="803" y="809" width="70" height="70" fill="black"/>
<rect id="rectangle144" x="869" y="809" width="70" height="70" fill="black"/>
<rect id="rectangle145" x="936" y="809" width="70" height="70" fill="black"/>
<rect id="rectangle146" x="1002" y="809" width="70" height="70" fill="black"/>
<rect id="rectangle147" x="1069" y="809" width="70" height="70" fill="black"/>
<rect id="rectangle148" x="1135" y="809" width="70" height="70" fill="black"/>
<rect id="rectangle149" x="1202" y="809" width="70" height="70" fill="black"/>
<rect id="rectangle150" x="1268" y="809" width="70" height="70" fill="black"/>
<rect id="rectangle151" x="1335" y="809" width="70" height="70" fill="black"/>
<rect id="rectangle152" x="1401" y="809" width="70" height="70" fill="black"/>
<rect id="rectangle153" x="1468" y="809" width="70" height="70" fill="black"/>
<rect id="rectangle154" x="1534" y="809" width="70" height="70" fill="black"/>
<rect id="rectangle155" x="1601" y="809" width="70" height="70" fill="black"/>
<path id="rectangle156" d="M1667 809H1732V879H1667V809Z" fill="black"/>
<path id="rectangle157" d="M108 743H141V813H69.5L72 806L93 771.5L108 743Z" fill="black"/>
<rect id="rectangle158" x="138" y="743" width="70" height="70" fill="black"/>
<rect id="rectangle159" x="204" y="743" width="70" height="70" fill="black"/>
<rect id="rectangle160" x="271" y="743" width="70" height="70" fill="black"/>
<rect id="rectangle161" x="337" y="743" width="70" height="70" fill="black"/>
<rect id="rectangle162" x="404" y="743" width="70" height="70" fill="black"/>
<rect id="rectangle163" x="470" y="743" width="70" height="70" fill="black"/>
<rect id="rectangle164" x="537" y="743" width="70" height="70" fill="black"/>
<rect id="rectangle165" x="603" y="743" width="70" height="70" fill="black"/>
<rect id="rectangle166" x="670" y="743" width="70" height="70" fill="black"/>
<rect id="rectangle167" x="736" y="743" width="70" height="70" fill="black"/>
<rect id="rectangle168" x="803" y="743" width="70" height="70" fill="black"/>
<rect id="rectangle169" x="869" y="743" width="70" height="70" fill="black"/>
<rect id="rectangle170" x="936" y="743" width="70" height="70" fill="black"/>
<rect id="rectangle171" x="1002" y="743" width="70" height="70" fill="black"/>
<rect id="rectangle172" x="1069" y="743" width="70" height="70" fill="black"/>
<rect id="rectangle173" x="1135" y="743" width="70" height="70" fill="black"/>
<rect id="rectangle174" x="1202" y="743" width="70" height="70" fill="black"/>
<rect id="rectangle175" x="1268" y="743" width="70" height="70" fill="black"/>
<rect id="rectangle176" x="1335" y="743" width="70" height="70" fill="black"/>
<rect id="rectangle177" x="1401" y="743" width="70" height="70" fill="black"/>
<rect id="rectangle178" x="1468" y="743" width="70" height="70" fill="black"/>
<rect id="rectangle179" x="1534" y="743" width="70" height="70" fill="black"/>
<rect id="rectangle180" x="1601" y="743" width="70" height="70" fill="black"/>
<path id="rectangle181" d="M1667 743H1732V813H1667V743Z" fill="black"/>
<path id="rectangle182" d="M138 677H208V747H106L138 677Z" fill="black"/>
<rect id="rectangle183" x="204" y="677" width="70" height="70" fill="black"/>
<rect id="rectangle184" x="271" y="677" width="70" height="70" fill="black"/>
<rect id="rectangle185" x="337" y="677" width="70" height="70" fill="black"/>
<rect id="rectangle186" x="404" y="677" width="70" height="70" fill="black"/>
<rect id="rectangle187" x="470" y="677" width="70" height="70" fill="black"/>
<rect id="rectangle188" x="537" y="677" width="70" height="70" fill="black"/>
<rect id="rectangle189" x="603" y="677" width="70" height="70" fill="black"/>
<rect id="rectangle190" x="670" y="677" width="70" height="70" fill="black"/>
<rect id="rectangle191" x="736" y="677" width="70" height="70" fill="black"/>
<rect id="rectangle192" x="803" y="677" width="70" height="70" fill="black"/>
<rect id="rectangle193" x="869" y="677" width="70" height="70" fill="black"/>
<rect id="rectangle194" x="936" y="677" width="70" height="70" fill="black"/>
<rect id="rectangle195" x="1002" y="677" width="70" height="70" fill="black"/>
<rect id="rectangle196" x="1069" y="677" width="70" height="70" fill="black"/>
<rect id="rectangle197" x="1135" y="677" width="70" height="70" fill="black"/>
<rect id="rectangle198" x="1202" y="677" width="70" height="70" fill="black"/>
<rect id="rectangle199" x="1268" y="677" width="70" height="70" fill="black"/>
<rect id="rectangle200" x="1335" y="677" width="70" height="70" fill="black"/>
<rect id="rectangle201" x="1401" y="677" width="70" height="70" fill="black"/>
<rect id="rectangle202" x="1468" y="677" width="70" height="70" fill="black"/>
<rect id="rectangle203" x="1534" y="677" width="70" height="70" fill="black"/>
<rect id="rectangle204" x="1601" y="677" width="70" height="70" fill="black"/>
<path id="rectangle205" d="M1667 677H1732V747H1667V677Z" fill="black"/>
<path id="rectangle206" d="M155 611H208V681H136.199L141 669.5L154.5 650L155 611Z" fill="black"/>
<rect id="rectangle207" x="204" y="611" width="70" height="70" fill="black"/>
<rect id="rectangle208" x="271" y="611" width="70" height="70" fill="black"/>
<rect id="rectangle209" x="337" y="611" width="70" height="70" fill="black"/>
<rect id="rectangle210" x="404" y="611" width="70" height="70" fill="black"/>
<rect id="rectangle211" x="470" y="611" width="70" height="70" fill="black"/>
<rect id="rectangle212" x="537" y="611" width="70" height="70" fill="black"/>
<rect id="rectangle213" x="603" y="611" width="70" height="70" fill="black"/>
<rect id="rectangle214" x="670" y="611" width="70" height="70" fill="black"/>
<rect id="rectangle215" x="736" y="611" width="70" height="70" fill="black"/>
<rect id="rectangle216" x="803" y="611" width="70" height="70" fill="black"/>
<rect id="rectangle217" x="869" y="611" width="70" height="70" fill="black"/>
<rect id="rectangle218" x="936" y="611" width="70" height="70" fill="black"/>
<rect id="rectangle219" x="1002" y="611" width="70" height="70" fill="black"/>
<rect id="rectangle220" x="1069" y="611" width="70" height="70" fill="black"/>
<rect id="rectangle221" x="1135" y="611" width="70" height="70" fill="black"/>
<rect id="rectangle222" x="1202" y="611" width="70" height="70" fill="black"/>
<rect id="rectangle223" x="1268" y="611" width="70" height="70" fill="black"/>
<rect id="rectangle224" x="1335" y="611" width="70" height="70" fill="black"/>
<rect id="rectangle225" x="1401" y="611" width="70" height="70" fill="black"/>
<rect id="rectangle226" x="1468" y="611" width="70" height="70" fill="black"/>
<rect id="rectangle227" x="1534" y="611" width="70" height="70" fill="black"/>
<rect id="rectangle228" x="1601" y="611" width="70" height="70" fill="black"/>
<path id="rectangle229" d="M1667 611H1732V681H1667V611Z" fill="black"/>
<rect id="rectangle230" x="155" y="545" width="53" height="70" fill="black"/>
<rect id="rectangle231" x="204" y="545" width="70" height="70" fill="black"/>
<rect id="rectangle232" x="271" y="545" width="70" height="70" fill="black"/>
<rect id="rectangle233" x="337" y="545" width="70" height="70" fill="black"/>
<rect id="rectangle234" x="404" y="545" width="70" height="70" fill="black"/>
<rect id="rectangle235" x="470" y="545" width="70" height="70" fill="black"/>
<rect id="rectangle236" x="537" y="545" width="70" height="70" fill="black"/>
<rect id="rectangle237" x="603" y="545" width="70" height="70" fill="black"/>
<rect id="rectangle238" x="670" y="545" width="70" height="70" fill="black"/>
<rect id="rectangle239" x="736" y="545" width="70" height="70" fill="black"/>
<rect id="rectangle240" x="803" y="545" width="70" height="70" fill="black"/>
<rect id="rectangle241" x="869" y="545" width="70" height="70" fill="black"/>
<rect id="rectangle242" x="936" y="545" width="70" height="70" fill="black"/>
<rect id="rectangle243" x="1002" y="545" width="70" height="70" fill="black"/>
<rect id="rectangle244" x="1069" y="545" width="70" height="70" fill="black"/>
<rect id="rectangle245" x="1135" y="545" width="70" height="70" fill="black"/>
<rect id="rectangle246" x="1202" y="545" width="70" height="70" fill="black"/>
<rect id="rectangle247" x="1268" y="545" width="70" height="70" fill="black"/>
<rect id="rectangle248" x="1335" y="545" width="70" height="70" fill="black"/>
<rect id="rectangle249" x="1401" y="545" width="70" height="70" fill="black"/>
<rect id="rectangle250" x="1468" y="545" width="70" height="70" fill="black"/>
<rect id="rectangle251" x="1534" y="545" width="70" height="70" fill="black"/>
<rect id="rectangle252" x="1601" y="545" width="70" height="70" fill="black"/>
<path id="rectangle253" d="M1667 545H1732V615H1667V545Z" fill="black"/>
<rect id="rectangle254" x="155" y="479" width="53" height="70" fill="black"/>
<rect id="rectangle255" x="204" y="479" width="70" height="70" fill="black"/>
<rect id="rectangle256" x="271" y="479" width="70" height="70" fill="black"/>
<rect id="rectangle257" x="337" y="479" width="70" height="70" fill="black"/>
<rect id="rectangle258" x="404" y="479" width="70" height="70" fill="black"/>
<rect id="rectangle259" x="470" y="479" width="70" height="70" fill="black"/>
<rect id="rectangle260" x="537" y="479" width="70" height="70" fill="black"/>
<rect id="rectangle261" x="603" y="479" width="70" height="70" fill="black"/>
<rect id="rectangle262" x="670" y="479" width="70" height="70" fill="black"/>
<rect id="rectangle263" x="736" y="479" width="70" height="70" fill="black"/>
<rect id="rectangle264" x="803" y="479" width="70" height="70" fill="black"/>
<rect id="rectangle265" x="869" y="479" width="70" height="70" fill="black"/>
<rect id="rectangle266" x="936" y="479" width="70" height="70" fill="black"/>
<rect id="rectangle267" x="1002" y="479" width="70" height="70" fill="black"/>
<rect id="rectangle268" x="1069" y="479" width="70" height="70" fill="black"/>
<rect id="rectangle269" x="1135" y="479" width="70" height="70" fill="black"/>
<rect id="rectangle270" x="1202" y="479" width="70" height="70" fill="black"/>
<rect id="rectangle271" x="1268" y="479" width="70" height="70" fill="black"/>
<rect id="rectangle272" x="1335" y="479" width="70" height="70" fill="black"/>
<rect id="rectangle273" x="1401" y="479" width="70" height="70" fill="black"/>
<rect id="rectangle274" x="1468" y="479" width="70" height="70" fill="black"/>
<rect id="rectangle275" x="1534" y="479" width="70" height="70" fill="black"/>
<rect id="rectangle276" x="1601" y="479" width="70" height="70" fill="black"/>
<path id="rectangle277" d="M1667 479H1732V549H1667V479Z" fill="black"/>
<rect id="rectangle278" x="155" y="413" width="53" height="70" fill="black"/>
<rect id="rectangle279" x="204" y="413" width="70" height="70" fill="black"/>
<rect id="rectangle280" x="271" y="413" width="70" height="70" fill="black"/>
<rect id="rectangle281" x="337" y="413" width="70" height="70" fill="black"/>
<rect id="rectangle282" x="404" y="413" width="70" height="70" fill="black"/>
<rect id="rectangle283" x="470" y="413" width="70" height="70" fill="black"/>
<rect id="rectangle284" x="537" y="413" width="70" height="70" fill="black"/>
<rect id="rectangle285" x="603" y="413" width="70" height="70" fill="black"/>
<rect id="rectangle286" x="670" y="413" width="70" height="70" fill="black"/>
<rect id="rectangle287" x="736" y="413" width="70" height="70" fill="black"/>
<rect id="rectangle288" x="803" y="413" width="70" height="70" fill="black"/>
<rect id="rectangle289" x="869" y="413" width="70" height="70" fill="black"/>
<rect id="rectangle290" x="936" y="413" width="70" height="70" fill="black"/>
<rect id="rectangle291" x="1002" y="413" width="70" height="70" fill="black"/>
<rect id="rectangle292" x="1069" y="413" width="70" height="70" fill="black"/>
<rect id="rectangle293" x="1135" y="413" width="70" height="70" fill="black"/>
<rect id="rectangle294" x="1202" y="413" width="70" height="70" fill="black"/>
<rect id="rectangle295" x="1268" y="413" width="70" height="70" fill="black"/>
<rect id="rectangle296" x="1335" y="413" width="70" height="70" fill="black"/>
<rect id="rectangle297" x="1401" y="413" width="70" height="70" fill="black"/>
<rect id="rectangle298" x="1468" y="413" width="70" height="70" fill="black"/>
<rect id="rectangle299" x="1534" y="413" width="70" height="70" fill="black"/>
<rect id="rectangle300" x="1601" y="413" width="70" height="70" fill="black"/>
<path id="rectangle301" d="M1667 413H1732V483H1667V413Z" fill="black"/>
<path id="rectangle302" d="M166.5 347H208V417H155V407.5L166.5 347Z" fill="black"/>
<rect id="rectangle303" x="204" y="347" width="70" height="70" fill="black"/>
<rect id="rectangle304" x="271" y="347" width="70" height="70" fill="black"/>
<rect id="rectangle305" x="337" y="347" width="70" height="70" fill="black"/>
<rect id="rectangle306" x="404" y="347" width="70" height="70" fill="black"/>
<rect id="rectangle307" x="470" y="347" width="70" height="70" fill="black"/>
<rect id="rectangle308" x="537" y="347" width="70" height="70" fill="black"/>
<rect id="rectangle309" x="603" y="347" width="70" height="70" fill="black"/>
<rect id="rectangle310" x="670" y="347" width="70" height="70" fill="black"/>
<rect id="rectangle311" x="736" y="347" width="70" height="70" fill="black"/>
<rect id="rectangle312" x="803" y="347" width="70" height="70" fill="black"/>
<rect id="rectangle313" x="869" y="347" width="70" height="70" fill="black"/>
<rect id="rectangle314" x="936" y="347" width="70" height="70" fill="black"/>
<rect id="rectangle315" x="1002" y="347" width="70" height="70" fill="black"/>
<rect id="rectangle316" x="1069" y="347" width="70" height="70" fill="black"/>
<rect id="rectangle317" x="1135" y="347" width="70" height="70" fill="black"/>
<rect id="rectangle318" x="1202" y="347" width="70" height="70" fill="black"/>
<rect id="rectangle319" x="1268" y="347" width="70" height="70" fill="black"/>
<rect id="rectangle320" x="1335" y="347" width="70" height="70" fill="black"/>
<rect id="rectangle321" x="1401" y="347" width="70" height="70" fill="black"/>
<rect id="rectangle322" x="1468" y="347" width="70" height="70" fill="black"/>
<rect id="rectangle323" x="1534" y="347" width="70" height="70" fill="black"/>
<rect id="rectangle324" x="1601" y="347" width="70" height="70" fill="black"/>
<path id="rectangle325" d="M1667 347H1732V417H1667V347Z" fill="black"/>
<path id="rectangle326" d="M179 281H208V351H166L179 281Z" fill="black"/>
<rect id="rectangle327" x="204" y="281" width="70" height="70" fill="black"/>
<rect id="rectangle328" x="271" y="281" width="70" height="70" fill="black"/>
<rect id="rectangle329" x="337" y="281" width="70" height="70" fill="black"/>
<rect id="rectangle330" x="404" y="281" width="70" height="70" fill="black"/>
<rect id="rectangle331" x="470" y="281" width="70" height="70" fill="black"/>
<rect id="rectangle332" x="537" y="281" width="70" height="70" fill="black"/>
<rect id="rectangle333" x="603" y="281" width="70" height="70" fill="black"/>
<rect id="rectangle334" x="670" y="281" width="70" height="70" fill="black"/>
<rect id="rectangle335" x="736" y="281" width="70" height="70" fill="black"/>
<rect id="rectangle336" x="803" y="281" width="70" height="70" fill="black"/>
<rect id="rectangle337" x="869" y="281" width="70" height="70" fill="black"/>
<rect id="rectangle338" x="936" y="281" width="70" height="70" fill="black"/>
<rect id="rectangle339" x="1002" y="281" width="70" height="70" fill="black"/>
<rect id="rectangle340" x="1069" y="281" width="70" height="70" fill="black"/>
<rect id="rectangle341" x="1135" y="281" width="70" height="70" fill="black"/>
<rect id="rectangle342" x="1202" y="281" width="70" height="70" fill="black"/>
<rect id="rectangle343" x="1268" y="281" width="70" height="70" fill="black"/>
<rect id="rectangle344" x="1335" y="281" width="70" height="70" fill="black"/>
<rect id="rectangle345" x="1401" y="281" width="70" height="70" fill="black"/>
<rect id="rectangle346" x="1468" y="281" width="70" height="70" fill="black"/>
<rect id="rectangle347" x="1534" y="281" width="70" height="70" fill="black"/>
<rect id="rectangle348" x="1601" y="281" width="70" height="70" fill="black"/>
<path id="rectangle349" d="M1667 281H1732V351H1667V281Z" fill="black"/>
<path id="rectangle350" d="M200.5 215H274V285H178.5L179 281L200.5 215Z" fill="black"/>
<rect id="rectangle351" x="271" y="215" width="70" height="70" fill="black"/>
<rect id="rectangle352" x="337" y="215" width="70" height="70" fill="black"/>
<rect id="rectangle353" x="404" y="215" width="70" height="70" fill="black"/>
<rect id="rectangle354" x="470" y="215" width="70" height="70" fill="black"/>
<rect id="rectangle355" x="537" y="215" width="70" height="70" fill="black"/>
<rect id="rectangle356" x="603" y="215" width="70" height="70" fill="black"/>
<rect id="rectangle357" x="670" y="215" width="70" height="70" fill="black"/>
<rect id="rectangle358" x="736" y="215" width="70" height="70" fill="black"/>
<rect id="rectangle359" x="803" y="215" width="70" height="70" fill="black"/>
<rect id="rectangle360" x="869" y="215" width="70" height="70" fill="black"/>
<rect id="rectangle361" x="936" y="215" width="70" height="70" fill="black"/>
<rect id="rectangle362" x="1002" y="215" width="70" height="70" fill="black"/>
<rect id="rectangle363" x="1069" y="215" width="70" height="70" fill="black"/>
<rect id="rectangle364" x="1135" y="215" width="70" height="70" fill="black"/>
<rect id="rectangle365" x="1202" y="215" width="70" height="70" fill="black"/>
<rect id="rectangle366" x="1268" y="215" width="70" height="70" fill="black"/>
<rect id="rectangle367" x="1335" y="215" width="70" height="70" fill="black"/>
<rect id="rectangle368" x="1401" y="215" width="70" height="70" fill="black"/>
<rect id="rectangle369" x="1468" y="215" width="70" height="70" fill="black"/>
<rect id="rectangle370" x="1534" y="215" width="70" height="70" fill="black"/>
<rect id="rectangle371" x="1601" y="215" width="70" height="70" fill="black"/>
<path id="rectangle372" d="M1667 215H1732V285H1667V215Z" fill="black"/>
<path id="rectangle373" d="M219.5 149H274V219H199.28L219.5 149Z" fill="black"/>
<rect id="rectangle374" x="271" y="149" width="70" height="70" fill="black"/>
<rect id="rectangle375" x="337" y="149" width="70" height="70" fill="black"/>
<rect id="rectangle376" x="404" y="149" width="70" height="70" fill="black"/>
<rect id="rectangle377" x="470" y="149" width="70" height="70" fill="black"/>
<rect id="rectangle378" x="537" y="149" width="70" height="70" fill="black"/>
<rect id="rectangle379" x="603" y="149" width="70" height="70" fill="black"/>
<rect id="rectangle380" x="670" y="149" width="70" height="70" fill="black"/>
<rect id="rectangle381" x="736" y="149" width="70" height="70" fill="black"/>
<rect id="rectangle382" x="803" y="149" width="70" height="70" fill="black"/>
<rect id="rectangle383" x="869" y="149" width="70" height="70" fill="black"/>
<rect id="rectangle384" x="936" y="149" width="70" height="70" fill="black"/>
<rect id="rectangle385" x="1002" y="149" width="70" height="70" fill="black"/>
<rect id="rectangle386" x="1069" y="149" width="70" height="70" fill="black"/>
<rect id="rectangle387" x="1135" y="149" width="70" height="70" fill="black"/>
<rect id="rectangle388" x="1202" y="149" width="70" height="70" fill="black"/>
<rect id="rectangle389" x="1268" y="149" width="70" height="70" fill="black"/>
<rect id="rectangle390" x="1335" y="149" width="70" height="70" fill="black"/>
<rect id="rectangle391" x="1401" y="149" width="70" height="70" fill="black"/>
<rect id="rectangle392" x="1468" y="149" width="70" height="70" fill="black"/>
<rect id="rectangle393" x="1534" y="149" width="70" height="70" fill="black"/>
<rect id="rectangle394" x="1601" y="149" width="70" height="70" fill="black"/>
<path id="rectangle395" d="M1667 149H1732V219H1667V149Z" fill="black"/>
<path id="rectangle396" d="M254 83H274V153H218.346L219.5 149L254 83Z" fill="black"/>
<rect id="rectangle397" x="271" y="83" width="70" height="70" fill="black"/>
<rect id="rectangle398" x="337" y="83" width="70" height="70" fill="black"/>
<rect id="rectangle399" x="404" y="83" width="70" height="70" fill="black"/>
<rect id="rectangle400" x="470" y="83" width="70" height="70" fill="black"/>
<rect id="rectangle401" x="537" y="83" width="70" height="70" fill="black"/>
<rect id="rectangle402" x="603" y="83" width="70" height="70" fill="black"/>
<rect id="rectangle403" x="670" y="83" width="70" height="70" fill="black"/>
<rect id="rectangle404" x="736" y="83" width="70" height="70" fill="black"/>
<rect id="rectangle405" x="803" y="83" width="70" height="70" fill="black"/>
<rect id="rectangle406" x="869" y="83" width="70" height="70" fill="black"/>
<rect id="rectangle407" x="936" y="83" width="70" height="70" fill="black"/>
<rect id="rectangle408" x="1002" y="83" width="70" height="70" fill="black"/>
<rect id="rectangle409" x="1069" y="83" width="70" height="70" fill="black"/>
<rect id="rectangle410" x="1135" y="83" width="70" height="70" fill="black"/>
<rect id="rectangle411" x="1202" y="83" width="70" height="70" fill="black"/>
<rect id="rectangle412" x="1268" y="83" width="70" height="70" fill="black"/>
<rect id="rectangle413" x="1335" y="83" width="70" height="70" fill="black"/>
<rect id="rectangle414" x="1401" y="83" width="70" height="70" fill="black"/>
<rect id="rectangle415" x="1468" y="83" width="70" height="70" fill="black"/>
<rect id="rectangle416" x="1534" y="83" width="70" height="70" fill="black"/>
<rect id="rectangle417" x="1601" y="83" width="70" height="70" fill="black"/>
<path id="rectangle418" d="M1667 83H1732V153H1667V83Z" fill="black"/>
<path id="rectangle419" d="M304 17H341V87H252L255 79.5L304 17Z" fill="black"/>
<rect id="rectangle420" x="337" y="17" width="70" height="70" fill="black"/>
<rect id="rectangle421" x="404" y="17" width="70" height="70" fill="black"/>
<rect id="rectangle422" x="470" y="17" width="70" height="70" fill="black"/>
<rect id="rectangle423" x="537" y="17" width="70" height="70" fill="black"/>
<rect id="rectangle424" x="603" y="17" width="70" height="70" fill="black"/>
<rect id="rectangle425" x="670" y="17" width="70" height="70" fill="black"/>
<rect id="rectangle426" x="736" y="17" width="70" height="70" fill="black"/>
<rect id="rectangle427" x="803" y="17" width="70" height="70" fill="black"/>
<rect id="rectangle428" x="869" y="17" width="70" height="70" fill="black"/>
<rect id="rectangle429" x="936" y="17" width="70" height="70" fill="black"/>
<rect id="rectangle430" x="1002" y="17" width="70" height="70" fill="black"/>
<rect id="rectangle431" x="1069" y="17" width="70" height="70" fill="black"/>
<rect id="rectangle432" x="1135" y="17" width="70" height="70" fill="black"/>
<rect id="rectangle433" x="1202" y="17" width="70" height="70" fill="black"/>
<rect id="rectangle434" x="1268" y="17" width="70" height="70" fill="black"/>
<rect id="rectangle435" x="1335" y="17" width="70" height="70" fill="black"/>
<rect id="rectangle436" x="1401" y="17" width="70" height="70" fill="black"/>
<rect id="rectangle437" x="1468" y="17" width="70" height="70" fill="black"/>
<rect id="rectangle438" x="1534" y="17" width="70" height="70" fill="black"/>
<rect id="rectangle439" x="1601" y="17" width="70" height="70" fill="black"/>
<path id="rectangle440" d="M1667 17H1732V87H1667V17Z" fill="black"/>
</g>
</svg>
