<svg width="1728" height="1205" viewBox="0 0 1728 1205" fill="none" xmlns="http://www.w3.org/2000/svg">
<g id="mask">
<path id="Rectangle 2" d="M2.72683 1202L9.29292 1141H68V1202H2.72683Z" stroke="black" stroke-width="4"/>
<rect id="Rectangle 3" x="73" y="1141" width="61" height="61" stroke="black" stroke-width="4"/>
<rect id="Rectangle 4" x="140" y="1141" width="61" height="61" stroke="black" stroke-width="4"/>
<rect id="Rectangle 5" x="206" y="1141" width="61" height="61" stroke="black" stroke-width="4"/>
<rect id="Rectangle 6" x="273" y="1141" width="61" height="61" stroke="black" stroke-width="4"/>
<rect id="Rectangle 7" x="339" y="1141" width="61" height="61" stroke="black" stroke-width="4"/>
<rect id="Rectangle 8" x="406" y="1141" width="61" height="61" stroke="black" stroke-width="4"/>
<rect id="Rectangle 9" x="472" y="1141" width="61" height="61" stroke="black" stroke-width="4"/>
<rect id="Rectangle 10" x="539" y="1141" width="61" height="61" stroke="black" stroke-width="4"/>
<rect id="Rectangle 11" x="605" y="1141" width="61" height="61" stroke="black" stroke-width="4"/>
<rect id="Rectangle 12" x="672" y="1141" width="61" height="61" stroke="black" stroke-width="4"/>
<rect id="Rectangle 13" x="738" y="1141" width="61" height="61" stroke="black" stroke-width="4"/>
<rect id="Rectangle 14" x="805" y="1141" width="61" height="61" stroke="black" stroke-width="4"/>
<rect id="Rectangle 15" x="871" y="1141" width="61" height="61" stroke="black" stroke-width="4"/>
<rect id="Rectangle 16" x="938" y="1141" width="61" height="61" stroke="black" stroke-width="4"/>
<rect id="Rectangle 17" x="1004" y="1141" width="61" height="61" stroke="black" stroke-width="4"/>
<rect id="Rectangle 18" x="1071" y="1141" width="61" height="61" stroke="black" stroke-width="4"/>
<rect id="Rectangle 19" x="1137" y="1141" width="61" height="61" stroke="black" stroke-width="4"/>
<rect id="Rectangle 20" x="1204" y="1141" width="61" height="61" stroke="black" stroke-width="4"/>
<rect id="Rectangle 21" x="1270" y="1141" width="61" height="61" stroke="black" stroke-width="4"/>
<rect id="Rectangle 22" x="1337" y="1141" width="61" height="61" stroke="black" stroke-width="4"/>
<rect id="Rectangle 23" x="1403" y="1141" width="61" height="61" stroke="black" stroke-width="4"/>
<rect id="Rectangle 24" x="1470" y="1141" width="61" height="61" stroke="black" stroke-width="4"/>
<rect id="Rectangle 25" x="1536" y="1141" width="61" height="61" stroke="black" stroke-width="4"/>
<rect id="Rectangle 26" x="1603" y="1141" width="61" height="61" stroke="black" stroke-width="4"/>
<path id="Rectangle 27" d="M1669 1141H1725V1202H1669V1141Z" stroke="black" stroke-width="4"/>
<path id="Rectangle 28" d="M9.74087 1136L16.6924 1075H68V1136H9.74087Z" stroke="black" stroke-width="4"/>
<rect id="Rectangle 29" x="73" y="1075" width="61" height="61" stroke="black" stroke-width="4"/>
<rect id="Rectangle 30" x="140" y="1075" width="61" height="61" stroke="black" stroke-width="4"/>
<rect id="Rectangle 31" x="206" y="1075" width="61" height="61" stroke="black" stroke-width="4"/>
<rect id="Rectangle 32" x="273" y="1075" width="61" height="61" stroke="black" stroke-width="4"/>
<rect id="Rectangle 33" x="339" y="1075" width="61" height="61" stroke="black" stroke-width="4"/>
<rect id="Rectangle 34" x="406" y="1075" width="61" height="61" stroke="black" stroke-width="4"/>
<rect id="Rectangle 35" x="472" y="1075" width="61" height="61" stroke="black" stroke-width="4"/>
<rect id="Rectangle 36" x="539" y="1075" width="61" height="61" stroke="black" stroke-width="4"/>
<rect id="Rectangle 37" x="605" y="1075" width="61" height="61" stroke="black" stroke-width="4"/>
<rect id="Rectangle 38" x="672" y="1075" width="61" height="61" stroke="black" stroke-width="4"/>
<rect id="Rectangle 39" x="738" y="1075" width="61" height="61" stroke="black" stroke-width="4"/>
<rect id="Rectangle 40" x="805" y="1075" width="61" height="61" stroke="black" stroke-width="4"/>
<rect id="Rectangle 41" x="871" y="1075" width="61" height="61" stroke="black" stroke-width="4"/>
<rect id="Rectangle 42" x="938" y="1075" width="61" height="61" stroke="black" stroke-width="4"/>
<rect id="Rectangle 43" x="1004" y="1075" width="61" height="61" stroke="black" stroke-width="4"/>
<rect id="Rectangle 44" x="1071" y="1075" width="61" height="61" stroke="black" stroke-width="4"/>
<rect id="Rectangle 45" x="1137" y="1075" width="61" height="61" stroke="black" stroke-width="4"/>
<rect id="Rectangle 46" x="1204" y="1075" width="61" height="61" stroke="black" stroke-width="4"/>
<rect id="Rectangle 47" x="1270" y="1075" width="61" height="61" stroke="black" stroke-width="4"/>
<rect id="Rectangle 48" x="1337" y="1075" width="61" height="61" stroke="black" stroke-width="4"/>
<rect id="Rectangle 49" x="1403" y="1075" width="61" height="61" stroke="black" stroke-width="4"/>
<rect id="Rectangle 50" x="1470" y="1075" width="61" height="61" stroke="black" stroke-width="4"/>
<rect id="Rectangle 51" x="1536" y="1075" width="61" height="61" stroke="black" stroke-width="4"/>
<rect id="Rectangle 52" x="1603" y="1075" width="61" height="61" stroke="black" stroke-width="4"/>
<path id="Rectangle 53" d="M1669 1075H1725V1136H1669V1075Z" stroke="black" stroke-width="4"/>
<path id="Rectangle 54" d="M17.2383 1070L24.1204 1009H68V1070H17.2383Z" stroke="black" stroke-width="4"/>
<rect id="Rectangle 55" x="73" y="1009" width="61" height="61" stroke="black" stroke-width="4"/>
<rect id="Rectangle 56" x="140" y="1009" width="61" height="61" stroke="black" stroke-width="4"/>
<rect id="Rectangle 57" x="206" y="1009" width="61" height="61" stroke="black" stroke-width="4"/>
<rect id="Rectangle 58" x="273" y="1009" width="61" height="61" stroke="black" stroke-width="4"/>
<rect id="Rectangle 59" x="339" y="1009" width="61" height="61" stroke="black" stroke-width="4"/>
<rect id="Rectangle 60" x="406" y="1009" width="61" height="61" stroke="black" stroke-width="4"/>
<rect id="Rectangle 61" x="472" y="1009" width="61" height="61" stroke="black" stroke-width="4"/>
<rect id="Rectangle 62" x="539" y="1009" width="61" height="61" stroke="black" stroke-width="4"/>
<rect id="Rectangle 63" x="605" y="1009" width="61" height="61" stroke="black" stroke-width="4"/>
<rect id="Rectangle 64" x="672" y="1009" width="61" height="61" stroke="black" stroke-width="4"/>
<rect id="Rectangle 65" x="738" y="1009" width="61" height="61" stroke="black" stroke-width="4"/>
<rect id="Rectangle 66" x="805" y="1009" width="61" height="61" stroke="black" stroke-width="4"/>
<rect id="Rectangle 67" x="871" y="1009" width="61" height="61" stroke="black" stroke-width="4"/>
<rect id="Rectangle 68" x="938" y="1009" width="61" height="61" stroke="black" stroke-width="4"/>
<rect id="Rectangle 69" x="1004" y="1009" width="61" height="61" stroke="black" stroke-width="4"/>
<rect id="Rectangle 70" x="1071" y="1009" width="61" height="61" stroke="black" stroke-width="4"/>
<rect id="Rectangle 71" x="1137" y="1009" width="61" height="61" stroke="black" stroke-width="4"/>
<rect id="Rectangle 72" x="1204" y="1009" width="61" height="61" stroke="black" stroke-width="4"/>
<rect id="Rectangle 73" x="1270" y="1009" width="61" height="61" stroke="black" stroke-width="4"/>
<rect id="Rectangle 74" x="1337" y="1009" width="61" height="61" stroke="black" stroke-width="4"/>
<rect id="Rectangle 75" x="1403" y="1009" width="61" height="61" stroke="black" stroke-width="4"/>
<rect id="Rectangle 76" x="1470" y="1009" width="61" height="61" stroke="black" stroke-width="4"/>
<rect id="Rectangle 77" x="1536" y="1009" width="61" height="61" stroke="black" stroke-width="4"/>
<rect id="Rectangle 78" x="1603" y="1009" width="61" height="61" stroke="black" stroke-width="4"/>
<path id="Rectangle 79" d="M1669 1009H1725V1070H1669V1009Z" stroke="black" stroke-width="4"/>
<path id="Rectangle 80" d="M24.2353 1004L31.0347 943H68V1004H24.2353Z" stroke="black" stroke-width="4"/>
<rect id="Rectangle 81" x="73" y="943" width="61" height="61" stroke="black" stroke-width="4"/>
<rect id="Rectangle 82" x="140" y="943" width="61" height="61" stroke="black" stroke-width="4"/>
<rect id="Rectangle 83" x="206" y="943" width="61" height="61" stroke="black" stroke-width="4"/>
<rect id="Rectangle 84" x="273" y="943" width="61" height="61" stroke="black" stroke-width="4"/>
<rect id="Rectangle 85" x="339" y="943" width="61" height="61" stroke="black" stroke-width="4"/>
<rect id="Rectangle 86" x="406" y="943" width="61" height="61" stroke="black" stroke-width="4"/>
<rect id="Rectangle 87" x="472" y="943" width="61" height="61" stroke="black" stroke-width="4"/>
<rect id="Rectangle 88" x="539" y="943" width="61" height="61" stroke="black" stroke-width="4"/>
<rect id="Rectangle 89" x="605" y="943" width="61" height="61" stroke="black" stroke-width="4"/>
<rect id="Rectangle 90" x="672" y="943" width="61" height="61" stroke="black" stroke-width="4"/>
<rect id="Rectangle 91" x="738" y="943" width="61" height="61" stroke="black" stroke-width="4"/>
<rect id="Rectangle 92" x="805" y="943" width="61" height="61" stroke="black" stroke-width="4"/>
<rect id="Rectangle 93" x="871" y="943" width="61" height="61" stroke="black" stroke-width="4"/>
<rect id="Rectangle 94" x="938" y="943" width="61" height="61" stroke="black" stroke-width="4"/>
<rect id="Rectangle 95" x="1004" y="943" width="61" height="61" stroke="black" stroke-width="4"/>
<rect id="Rectangle 96" x="1071" y="943" width="61" height="61" stroke="black" stroke-width="4"/>
<rect id="Rectangle 97" x="1137" y="943" width="61" height="61" stroke="black" stroke-width="4"/>
<rect id="Rectangle 98" x="1204" y="943" width="61" height="61" stroke="black" stroke-width="4"/>
<rect id="Rectangle 99" x="1270" y="943" width="61" height="61" stroke="black" stroke-width="4"/>
<rect id="Rectangle 100" x="1337" y="943" width="61" height="61" stroke="black" stroke-width="4"/>
<rect id="Rectangle 101" x="1403" y="943" width="61" height="61" stroke="black" stroke-width="4"/>
<rect id="Rectangle 102" x="1470" y="943" width="61" height="61" stroke="black" stroke-width="4"/>
<rect id="Rectangle 103" x="1536" y="943" width="61" height="61" stroke="black" stroke-width="4"/>
<rect id="Rectangle 104" x="1603" y="943" width="61" height="61" stroke="black" stroke-width="4"/>
<path id="Rectangle 105" d="M1669 943H1725V1004H1669V943Z" stroke="black" stroke-width="4"/>
<path id="Rectangle 106" d="M32.0023 938L45.7853 877H68V938H32.0023Z" stroke="black" stroke-width="4"/>
<rect id="Rectangle 107" x="73" y="877" width="61" height="61" stroke="black" stroke-width="4"/>
<rect id="Rectangle 108" x="140" y="877" width="61" height="61" stroke="black" stroke-width="4"/>
<rect id="Rectangle 109" x="206" y="877" width="61" height="61" stroke="black" stroke-width="4"/>
<rect id="Rectangle 110" x="273" y="877" width="61" height="61" stroke="black" stroke-width="4"/>
<rect id="Rectangle 111" x="339" y="877" width="61" height="61" stroke="black" stroke-width="4"/>
<rect id="Rectangle 112" x="406" y="877" width="61" height="61" stroke="black" stroke-width="4"/>
<rect id="Rectangle 113" x="472" y="877" width="61" height="61" stroke="black" stroke-width="4"/>
<rect id="Rectangle 114" x="539" y="877" width="61" height="61" stroke="black" stroke-width="4"/>
<rect id="Rectangle 115" x="605" y="877" width="61" height="61" stroke="black" stroke-width="4"/>
<rect id="Rectangle 116" x="672" y="877" width="61" height="61" stroke="black" stroke-width="4"/>
<rect id="Rectangle 117" x="738" y="877" width="61" height="61" stroke="black" stroke-width="4"/>
<rect id="Rectangle 118" x="805" y="877" width="61" height="61" stroke="black" stroke-width="4"/>
<rect id="Rectangle 119" x="871" y="877" width="61" height="61" stroke="black" stroke-width="4"/>
<rect id="Rectangle 120" x="938" y="877" width="61" height="61" stroke="black" stroke-width="4"/>
<rect id="Rectangle 121" x="1004" y="877" width="61" height="61" stroke="black" stroke-width="4"/>
<rect id="Rectangle 122" x="1071" y="877" width="61" height="61" stroke="black" stroke-width="4"/>
<rect id="Rectangle 123" x="1137" y="877" width="61" height="61" stroke="black" stroke-width="4"/>
<rect id="Rectangle 124" x="1204" y="877" width="61" height="61" stroke="black" stroke-width="4"/>
<rect id="Rectangle 125" x="1270" y="877" width="61" height="61" stroke="black" stroke-width="4"/>
<rect id="Rectangle 126" x="1337" y="877" width="61" height="61" stroke="black" stroke-width="4"/>
<rect id="Rectangle 127" x="1403" y="877" width="61" height="61" stroke="black" stroke-width="4"/>
<rect id="Rectangle 128" x="1470" y="877" width="61" height="61" stroke="black" stroke-width="4"/>
<rect id="Rectangle 129" x="1536" y="877" width="61" height="61" stroke="black" stroke-width="4"/>
<rect id="Rectangle 130" x="1603" y="877" width="61" height="61" stroke="black" stroke-width="4"/>
<path id="Rectangle 131" d="M1669 877H1725V938H1669V877Z" stroke="black" stroke-width="4"/>
<path id="Rectangle 132" d="M47.8667 870.879L71.0197 811H134V872H47.602L47.8667 870.879Z" stroke="black" stroke-width="4"/>
<rect id="Rectangle 133" x="140" y="811" width="61" height="61" stroke="black" stroke-width="4"/>
<rect id="Rectangle 134" x="206" y="811" width="61" height="61" stroke="black" stroke-width="4"/>
<rect id="Rectangle 135" x="273" y="811" width="61" height="61" stroke="black" stroke-width="4"/>
<rect id="Rectangle 136" x="339" y="811" width="61" height="61" stroke="black" stroke-width="4"/>
<rect id="Rectangle 137" x="406" y="811" width="61" height="61" stroke="black" stroke-width="4"/>
<rect id="Rectangle 138" x="472" y="811" width="61" height="61" stroke="black" stroke-width="4"/>
<rect id="Rectangle 139" x="539" y="811" width="61" height="61" stroke="black" stroke-width="4"/>
<rect id="Rectangle 140" x="605" y="811" width="61" height="61" stroke="black" stroke-width="4"/>
<rect id="Rectangle 141" x="672" y="811" width="61" height="61" stroke="black" stroke-width="4"/>
<rect id="Rectangle 142" x="738" y="811" width="61" height="61" stroke="black" stroke-width="4"/>
<rect id="Rectangle 143" x="805" y="811" width="61" height="61" stroke="black" stroke-width="4"/>
<rect id="Rectangle 144" x="871" y="811" width="61" height="61" stroke="black" stroke-width="4"/>
<rect id="Rectangle 145" x="938" y="811" width="61" height="61" stroke="black" stroke-width="4"/>
<rect id="Rectangle 146" x="1004" y="811" width="61" height="61" stroke="black" stroke-width="4"/>
<rect id="Rectangle 147" x="1071" y="811" width="61" height="61" stroke="black" stroke-width="4"/>
<rect id="Rectangle 148" x="1137" y="811" width="61" height="61" stroke="black" stroke-width="4"/>
<rect id="Rectangle 149" x="1204" y="811" width="61" height="61" stroke="black" stroke-width="4"/>
<rect id="Rectangle 150" x="1270" y="811" width="61" height="61" stroke="black" stroke-width="4"/>
<rect id="Rectangle 151" x="1337" y="811" width="61" height="61" stroke="black" stroke-width="4"/>
<rect id="Rectangle 152" x="1403" y="811" width="61" height="61" stroke="black" stroke-width="4"/>
<rect id="Rectangle 153" x="1470" y="811" width="61" height="61" stroke="black" stroke-width="4"/>
<rect id="Rectangle 154" x="1536" y="811" width="61" height="61" stroke="black" stroke-width="4"/>
<rect id="Rectangle 155" x="1603" y="811" width="61" height="61" stroke="black" stroke-width="4"/>
<path id="Rectangle 156" d="M1669 811H1725V872H1669V811Z" stroke="black" stroke-width="4"/>
<path id="Rectangle 157" d="M93.0643 770.505L93.0968 770.452L93.1259 770.397L106.514 745H134V806H72.3395L73.6394 802.366L93.0643 770.505Z" stroke="black" stroke-width="4"/>
<rect id="Rectangle 158" x="140" y="745" width="61" height="61" stroke="black" stroke-width="4"/>
<rect id="Rectangle 159" x="206" y="745" width="61" height="61" stroke="black" stroke-width="4"/>
<rect id="Rectangle 160" x="273" y="745" width="61" height="61" stroke="black" stroke-width="4"/>
<rect id="Rectangle 161" x="339" y="745" width="61" height="61" stroke="black" stroke-width="4"/>
<rect id="Rectangle 162" x="406" y="745" width="61" height="61" stroke="black" stroke-width="4"/>
<rect id="Rectangle 163" x="472" y="745" width="61" height="61" stroke="black" stroke-width="4"/>
<rect id="Rectangle 164" x="539" y="745" width="61" height="61" stroke="black" stroke-width="4"/>
<rect id="Rectangle 165" x="605" y="745" width="61" height="61" stroke="black" stroke-width="4"/>
<rect id="Rectangle 166" x="672" y="745" width="61" height="61" stroke="black" stroke-width="4"/>
<rect id="Rectangle 167" x="738" y="745" width="61" height="61" stroke="black" stroke-width="4"/>
<rect id="Rectangle 168" x="805" y="745" width="61" height="61" stroke="black" stroke-width="4"/>
<rect id="Rectangle 169" x="871" y="745" width="61" height="61" stroke="black" stroke-width="4"/>
<rect id="Rectangle 170" x="938" y="745" width="61" height="61" stroke="black" stroke-width="4"/>
<rect id="Rectangle 171" x="1004" y="745" width="61" height="61" stroke="black" stroke-width="4"/>
<rect id="Rectangle 172" x="1071" y="745" width="61" height="61" stroke="black" stroke-width="4"/>
<rect id="Rectangle 173" x="1137" y="745" width="61" height="61" stroke="black" stroke-width="4"/>
<rect id="Rectangle 174" x="1204" y="745" width="61" height="61" stroke="black" stroke-width="4"/>
<rect id="Rectangle 175" x="1270" y="745" width="61" height="61" stroke="black" stroke-width="4"/>
<rect id="Rectangle 176" x="1337" y="745" width="61" height="61" stroke="black" stroke-width="4"/>
<rect id="Rectangle 177" x="1403" y="745" width="61" height="61" stroke="black" stroke-width="4"/>
<rect id="Rectangle 178" x="1470" y="745" width="61" height="61" stroke="black" stroke-width="4"/>
<rect id="Rectangle 179" x="1536" y="745" width="61" height="61" stroke="black" stroke-width="4"/>
<rect id="Rectangle 180" x="1603" y="745" width="61" height="61" stroke="black" stroke-width="4"/>
<path id="Rectangle 181" d="M1669 745H1725V806H1669V745Z" stroke="black" stroke-width="4"/>
<path id="Rectangle 182" d="M109.145 740L137.703 679H201V740H109.145Z" stroke="black" stroke-width="4"/>
<rect id="Rectangle 183" x="206" y="679" width="61" height="61" stroke="black" stroke-width="4"/>
<rect id="Rectangle 184" x="273" y="679" width="61" height="61" stroke="black" stroke-width="4"/>
<rect id="Rectangle 185" x="339" y="679" width="61" height="61" stroke="black" stroke-width="4"/>
<rect id="Rectangle 186" x="406" y="679" width="61" height="61" stroke="black" stroke-width="4"/>
<rect id="Rectangle 187" x="472" y="679" width="61" height="61" stroke="black" stroke-width="4"/>
<rect id="Rectangle 188" x="539" y="679" width="61" height="61" stroke="black" stroke-width="4"/>
<rect id="Rectangle 189" x="605" y="679" width="61" height="61" stroke="black" stroke-width="4"/>
<rect id="Rectangle 190" x="672" y="679" width="61" height="61" stroke="black" stroke-width="4"/>
<rect id="Rectangle 191" x="738" y="679" width="61" height="61" stroke="black" stroke-width="4"/>
<rect id="Rectangle 192" x="805" y="679" width="61" height="61" stroke="black" stroke-width="4"/>
<rect id="Rectangle 193" x="871" y="679" width="61" height="61" stroke="black" stroke-width="4"/>
<rect id="Rectangle 194" x="938" y="679" width="61" height="61" stroke="black" stroke-width="4"/>
<rect id="Rectangle 195" x="1004" y="679" width="61" height="61" stroke="black" stroke-width="4"/>
<rect id="Rectangle 196" x="1071" y="679" width="61" height="61" stroke="black" stroke-width="4"/>
<rect id="Rectangle 197" x="1137" y="679" width="61" height="61" stroke="black" stroke-width="4"/>
<rect id="Rectangle 198" x="1204" y="679" width="61" height="61" stroke="black" stroke-width="4"/>
<rect id="Rectangle 199" x="1270" y="679" width="61" height="61" stroke="black" stroke-width="4"/>
<rect id="Rectangle 200" x="1337" y="679" width="61" height="61" stroke="black" stroke-width="4"/>
<rect id="Rectangle 201" x="1403" y="679" width="61" height="61" stroke="black" stroke-width="4"/>
<rect id="Rectangle 202" x="1470" y="679" width="61" height="61" stroke="black" stroke-width="4"/>
<rect id="Rectangle 203" x="1536" y="679" width="61" height="61" stroke="black" stroke-width="4"/>
<rect id="Rectangle 204" x="1603" y="679" width="61" height="61" stroke="black" stroke-width="4"/>
<path id="Rectangle 205" d="M1669 679H1725V740H1669V679Z" stroke="black" stroke-width="4"/>
<path id="Rectangle 206" d="M154.869 648.354L155.218 647.852L155.225 647.24L155.665 613H201V674H139.203L142.429 666.288L154.869 648.354Z" stroke="black" stroke-width="4"/>
<rect id="Rectangle 207" x="206" y="613" width="61" height="61" stroke="black" stroke-width="4"/>
<rect id="Rectangle 208" x="273" y="613" width="61" height="61" stroke="black" stroke-width="4"/>
<rect id="Rectangle 209" x="339" y="613" width="61" height="61" stroke="black" stroke-width="4"/>
<rect id="Rectangle 210" x="406" y="613" width="61" height="61" stroke="black" stroke-width="4"/>
<rect id="Rectangle 211" x="472" y="613" width="61" height="61" stroke="black" stroke-width="4"/>
<rect id="Rectangle 212" x="539" y="613" width="61" height="61" stroke="black" stroke-width="4"/>
<rect id="Rectangle 213" x="605" y="613" width="61" height="61" stroke="black" stroke-width="4"/>
<rect id="Rectangle 214" x="672" y="613" width="61" height="61" stroke="black" stroke-width="4"/>
<rect id="Rectangle 215" x="738" y="613" width="61" height="61" stroke="black" stroke-width="4"/>
<rect id="Rectangle 216" x="805" y="613" width="61" height="61" stroke="black" stroke-width="4"/>
<rect id="Rectangle 217" x="871" y="613" width="61" height="61" stroke="black" stroke-width="4"/>
<rect id="Rectangle 218" x="938" y="613" width="61" height="61" stroke="black" stroke-width="4"/>
<rect id="Rectangle 219" x="1004" y="613" width="61" height="61" stroke="black" stroke-width="4"/>
<rect id="Rectangle 220" x="1071" y="613" width="61" height="61" stroke="black" stroke-width="4"/>
<rect id="Rectangle 221" x="1137" y="613" width="61" height="61" stroke="black" stroke-width="4"/>
<rect id="Rectangle 222" x="1204" y="613" width="61" height="61" stroke="black" stroke-width="4"/>
<rect id="Rectangle 223" x="1270" y="613" width="61" height="61" stroke="black" stroke-width="4"/>
<rect id="Rectangle 224" x="1337" y="613" width="61" height="61" stroke="black" stroke-width="4"/>
<rect id="Rectangle 225" x="1403" y="613" width="61" height="61" stroke="black" stroke-width="4"/>
<rect id="Rectangle 226" x="1470" y="613" width="61" height="61" stroke="black" stroke-width="4"/>
<rect id="Rectangle 227" x="1536" y="613" width="61" height="61" stroke="black" stroke-width="4"/>
<rect id="Rectangle 228" x="1603" y="613" width="61" height="61" stroke="black" stroke-width="4"/>
<path id="Rectangle 229" d="M1669 613H1725V674H1669V613Z" stroke="black" stroke-width="4"/>
<rect id="Rectangle 230" x="157" y="547" width="44" height="61" stroke="black" stroke-width="4"/>
<rect id="Rectangle 231" x="206" y="547" width="61" height="61" stroke="black" stroke-width="4"/>
<rect id="Rectangle 232" x="273" y="547" width="61" height="61" stroke="black" stroke-width="4"/>
<rect id="Rectangle 233" x="339" y="547" width="61" height="61" stroke="black" stroke-width="4"/>
<rect id="Rectangle 234" x="406" y="547" width="61" height="61" stroke="black" stroke-width="4"/>
<rect id="Rectangle 235" x="472" y="547" width="61" height="61" stroke="black" stroke-width="4"/>
<rect id="Rectangle 236" x="539" y="547" width="61" height="61" stroke="black" stroke-width="4"/>
<rect id="Rectangle 237" x="605" y="547" width="61" height="61" stroke="black" stroke-width="4"/>
<rect id="Rectangle 238" x="672" y="547" width="61" height="61" stroke="black" stroke-width="4"/>
<rect id="Rectangle 239" x="738" y="547" width="61" height="61" stroke="black" stroke-width="4"/>
<rect id="Rectangle 240" x="805" y="547" width="61" height="61" stroke="black" stroke-width="4"/>
<rect id="Rectangle 241" x="871" y="547" width="61" height="61" stroke="black" stroke-width="4"/>
<rect id="Rectangle 242" x="938" y="547" width="61" height="61" stroke="black" stroke-width="4"/>
<rect id="Rectangle 243" x="1004" y="547" width="61" height="61" stroke="black" stroke-width="4"/>
<rect id="Rectangle 244" x="1071" y="547" width="61" height="61" stroke="black" stroke-width="4"/>
<rect id="Rectangle 245" x="1137" y="547" width="61" height="61" stroke="black" stroke-width="4"/>
<rect id="Rectangle 246" x="1204" y="547" width="61" height="61" stroke="black" stroke-width="4"/>
<rect id="Rectangle 247" x="1270" y="547" width="61" height="61" stroke="black" stroke-width="4"/>
<rect id="Rectangle 248" x="1337" y="547" width="61" height="61" stroke="black" stroke-width="4"/>
<rect id="Rectangle 249" x="1403" y="547" width="61" height="61" stroke="black" stroke-width="4"/>
<rect id="Rectangle 250" x="1470" y="547" width="61" height="61" stroke="black" stroke-width="4"/>
<rect id="Rectangle 251" x="1536" y="547" width="61" height="61" stroke="black" stroke-width="4"/>
<rect id="Rectangle 252" x="1603" y="547" width="61" height="61" stroke="black" stroke-width="4"/>
<path id="Rectangle 253" d="M1669 547H1725V608H1669V547Z" stroke="black" stroke-width="4"/>
<rect id="Rectangle 254" x="157" y="481" width="44" height="61" stroke="black" stroke-width="4"/>
<rect id="Rectangle 255" x="206" y="481" width="61" height="61" stroke="black" stroke-width="4"/>
<rect id="Rectangle 256" x="273" y="481" width="61" height="61" stroke="black" stroke-width="4"/>
<rect id="Rectangle 257" x="339" y="481" width="61" height="61" stroke="black" stroke-width="4"/>
<rect id="Rectangle 258" x="406" y="481" width="61" height="61" stroke="black" stroke-width="4"/>
<rect id="Rectangle 259" x="472" y="481" width="61" height="61" stroke="black" stroke-width="4"/>
<rect id="Rectangle 260" x="539" y="481" width="61" height="61" stroke="black" stroke-width="4"/>
<rect id="Rectangle 261" x="605" y="481" width="61" height="61" stroke="black" stroke-width="4"/>
<rect id="Rectangle 262" x="672" y="481" width="61" height="61" stroke="black" stroke-width="4"/>
<rect id="Rectangle 263" x="738" y="481" width="61" height="61" stroke="black" stroke-width="4"/>
<rect id="Rectangle 264" x="805" y="481" width="61" height="61" stroke="black" stroke-width="4"/>
<rect id="Rectangle 265" x="871" y="481" width="61" height="61" stroke="black" stroke-width="4"/>
<rect id="Rectangle 266" x="938" y="481" width="61" height="61" stroke="black" stroke-width="4"/>
<rect id="Rectangle 267" x="1004" y="481" width="61" height="61" stroke="black" stroke-width="4"/>
<rect id="Rectangle 268" x="1071" y="481" width="61" height="61" stroke="black" stroke-width="4"/>
<rect id="Rectangle 269" x="1137" y="481" width="61" height="61" stroke="black" stroke-width="4"/>
<rect id="Rectangle 270" x="1204" y="481" width="61" height="61" stroke="black" stroke-width="4"/>
<rect id="Rectangle 271" x="1270" y="481" width="61" height="61" stroke="black" stroke-width="4"/>
<rect id="Rectangle 272" x="1337" y="481" width="61" height="61" stroke="black" stroke-width="4"/>
<rect id="Rectangle 273" x="1403" y="481" width="61" height="61" stroke="black" stroke-width="4"/>
<rect id="Rectangle 274" x="1470" y="481" width="61" height="61" stroke="black" stroke-width="4"/>
<rect id="Rectangle 275" x="1536" y="481" width="61" height="61" stroke="black" stroke-width="4"/>
<rect id="Rectangle 276" x="1603" y="481" width="61" height="61" stroke="black" stroke-width="4"/>
<path id="Rectangle 277" d="M1669 481H1725V542H1669V481Z" stroke="black" stroke-width="4"/>
<rect id="Rectangle 278" x="157" y="415" width="44" height="61" stroke="black" stroke-width="4"/>
<rect id="Rectangle 279" x="206" y="415" width="61" height="61" stroke="black" stroke-width="4"/>
<rect id="Rectangle 280" x="273" y="415" width="61" height="61" stroke="black" stroke-width="4"/>
<rect id="Rectangle 281" x="339" y="415" width="61" height="61" stroke="black" stroke-width="4"/>
<rect id="Rectangle 282" x="406" y="415" width="61" height="61" stroke="black" stroke-width="4"/>
<rect id="Rectangle 283" x="472" y="415" width="61" height="61" stroke="black" stroke-width="4"/>
<rect id="Rectangle 284" x="539" y="415" width="61" height="61" stroke="black" stroke-width="4"/>
<rect id="Rectangle 285" x="605" y="415" width="61" height="61" stroke="black" stroke-width="4"/>
<rect id="Rectangle 286" x="672" y="415" width="61" height="61" stroke="black" stroke-width="4"/>
<rect id="Rectangle 287" x="738" y="415" width="61" height="61" stroke="black" stroke-width="4"/>
<rect id="Rectangle 288" x="805" y="415" width="61" height="61" stroke="black" stroke-width="4"/>
<rect id="Rectangle 289" x="871" y="415" width="61" height="61" stroke="black" stroke-width="4"/>
<rect id="Rectangle 290" x="938" y="415" width="61" height="61" stroke="black" stroke-width="4"/>
<rect id="Rectangle 291" x="1004" y="415" width="61" height="61" stroke="black" stroke-width="4"/>
<rect id="Rectangle 292" x="1071" y="415" width="61" height="61" stroke="black" stroke-width="4"/>
<rect id="Rectangle 293" x="1137" y="415" width="61" height="61" stroke="black" stroke-width="4"/>
<rect id="Rectangle 294" x="1204" y="415" width="61" height="61" stroke="black" stroke-width="4"/>
<rect id="Rectangle 295" x="1270" y="415" width="61" height="61" stroke="black" stroke-width="4"/>
<rect id="Rectangle 296" x="1337" y="415" width="61" height="61" stroke="black" stroke-width="4"/>
<rect id="Rectangle 297" x="1403" y="415" width="61" height="61" stroke="black" stroke-width="4"/>
<rect id="Rectangle 298" x="1470" y="415" width="61" height="61" stroke="black" stroke-width="4"/>
<rect id="Rectangle 299" x="1536" y="415" width="61" height="61" stroke="black" stroke-width="4"/>
<rect id="Rectangle 300" x="1603" y="415" width="61" height="61" stroke="black" stroke-width="4"/>
<path id="Rectangle 301" d="M1669 415H1725V476H1669V415Z" stroke="black" stroke-width="4"/>
<path id="Rectangle 302" d="M157 403.362L167.078 349H201V410H157V403.362Z" stroke="black" stroke-width="4"/>
<rect id="Rectangle 303" x="206" y="349" width="61" height="61" stroke="black" stroke-width="4"/>
<rect id="Rectangle 304" x="273" y="349" width="61" height="61" stroke="black" stroke-width="4"/>
<rect id="Rectangle 305" x="339" y="349" width="61" height="61" stroke="black" stroke-width="4"/>
<rect id="Rectangle 306" x="406" y="349" width="61" height="61" stroke="black" stroke-width="4"/>
<rect id="Rectangle 307" x="472" y="349" width="61" height="61" stroke="black" stroke-width="4"/>
<rect id="Rectangle 308" x="539" y="349" width="61" height="61" stroke="black" stroke-width="4"/>
<rect id="Rectangle 309" x="605" y="349" width="61" height="61" stroke="black" stroke-width="4"/>
<rect id="Rectangle 310" x="672" y="349" width="61" height="61" stroke="black" stroke-width="4"/>
<rect id="Rectangle 311" x="738" y="349" width="61" height="61" stroke="black" stroke-width="4"/>
<rect id="Rectangle 312" x="805" y="349" width="61" height="61" stroke="black" stroke-width="4"/>
<rect id="Rectangle 313" x="871" y="349" width="61" height="61" stroke="black" stroke-width="4"/>
<rect id="Rectangle 314" x="938" y="349" width="61" height="61" stroke="black" stroke-width="4"/>
<rect id="Rectangle 315" x="1004" y="349" width="61" height="61" stroke="black" stroke-width="4"/>
<rect id="Rectangle 316" x="1071" y="349" width="61" height="61" stroke="black" stroke-width="4"/>
<rect id="Rectangle 317" x="1137" y="349" width="61" height="61" stroke="black" stroke-width="4"/>
<rect id="Rectangle 318" x="1204" y="349" width="61" height="61" stroke="black" stroke-width="4"/>
<rect id="Rectangle 319" x="1270" y="349" width="61" height="61" stroke="black" stroke-width="4"/>
<rect id="Rectangle 320" x="1337" y="349" width="61" height="61" stroke="black" stroke-width="4"/>
<rect id="Rectangle 321" x="1403" y="349" width="61" height="61" stroke="black" stroke-width="4"/>
<rect id="Rectangle 322" x="1470" y="349" width="61" height="61" stroke="black" stroke-width="4"/>
<rect id="Rectangle 323" x="1536" y="349" width="61" height="61" stroke="black" stroke-width="4"/>
<rect id="Rectangle 324" x="1603" y="349" width="61" height="61" stroke="black" stroke-width="4"/>
<path id="Rectangle 325" d="M1669 349H1725V410H1669V349Z" stroke="black" stroke-width="4"/>
<path id="Rectangle 326" d="M168.383 344L179.131 283H201V344H168.383Z" stroke="black" stroke-width="4"/>
<rect id="Rectangle 327" x="206" y="283" width="61" height="61" stroke="black" stroke-width="4"/>
<rect id="Rectangle 328" x="273" y="283" width="61" height="61" stroke="black" stroke-width="4"/>
<rect id="Rectangle 329" x="339" y="283" width="61" height="61" stroke="black" stroke-width="4"/>
<rect id="Rectangle 330" x="406" y="283" width="61" height="61" stroke="black" stroke-width="4"/>
<rect id="Rectangle 331" x="472" y="283" width="61" height="61" stroke="black" stroke-width="4"/>
<rect id="Rectangle 332" x="539" y="283" width="61" height="61" stroke="black" stroke-width="4"/>
<rect id="Rectangle 333" x="605" y="283" width="61" height="61" stroke="black" stroke-width="4"/>
<rect id="Rectangle 334" x="672" y="283" width="61" height="61" stroke="black" stroke-width="4"/>
<rect id="Rectangle 335" x="738" y="283" width="61" height="61" stroke="black" stroke-width="4"/>
<rect id="Rectangle 336" x="805" y="283" width="61" height="61" stroke="black" stroke-width="4"/>
<rect id="Rectangle 337" x="871" y="283" width="61" height="61" stroke="black" stroke-width="4"/>
<rect id="Rectangle 338" x="938" y="283" width="61" height="61" stroke="black" stroke-width="4"/>
<rect id="Rectangle 339" x="1004" y="283" width="61" height="61" stroke="black" stroke-width="4"/>
<rect id="Rectangle 340" x="1071" y="283" width="61" height="61" stroke="black" stroke-width="4"/>
<rect id="Rectangle 341" x="1137" y="283" width="61" height="61" stroke="black" stroke-width="4"/>
<rect id="Rectangle 342" x="1204" y="283" width="61" height="61" stroke="black" stroke-width="4"/>
<rect id="Rectangle 343" x="1270" y="283" width="61" height="61" stroke="black" stroke-width="4"/>
<rect id="Rectangle 344" x="1337" y="283" width="61" height="61" stroke="black" stroke-width="4"/>
<rect id="Rectangle 345" x="1403" y="283" width="61" height="61" stroke="black" stroke-width="4"/>
<rect id="Rectangle 346" x="1470" y="283" width="61" height="61" stroke="black" stroke-width="4"/>
<rect id="Rectangle 347" x="1536" y="283" width="61" height="61" stroke="black" stroke-width="4"/>
<rect id="Rectangle 348" x="1603" y="283" width="61" height="61" stroke="black" stroke-width="4"/>
<path id="Rectangle 349" d="M1669 283H1725V344H1669V283Z" stroke="black" stroke-width="4"/>
<path id="Rectangle 350" d="M180.933 276.732L200.791 217H267V278H180.771L180.933 276.732Z" stroke="black" stroke-width="4"/>
<rect id="Rectangle 351" x="273" y="217" width="61" height="61" stroke="black" stroke-width="4"/>
<rect id="Rectangle 352" x="339" y="217" width="61" height="61" stroke="black" stroke-width="4"/>
<rect id="Rectangle 353" x="406" y="217" width="61" height="61" stroke="black" stroke-width="4"/>
<rect id="Rectangle 354" x="472" y="217" width="61" height="61" stroke="black" stroke-width="4"/>
<rect id="Rectangle 355" x="539" y="217" width="61" height="61" stroke="black" stroke-width="4"/>
<rect id="Rectangle 356" x="605" y="217" width="61" height="61" stroke="black" stroke-width="4"/>
<rect id="Rectangle 357" x="672" y="217" width="61" height="61" stroke="black" stroke-width="4"/>
<rect id="Rectangle 358" x="738" y="217" width="61" height="61" stroke="black" stroke-width="4"/>
<rect id="Rectangle 359" x="805" y="217" width="61" height="61" stroke="black" stroke-width="4"/>
<rect id="Rectangle 360" x="871" y="217" width="61" height="61" stroke="black" stroke-width="4"/>
<rect id="Rectangle 361" x="938" y="217" width="61" height="61" stroke="black" stroke-width="4"/>
<rect id="Rectangle 362" x="1004" y="217" width="61" height="61" stroke="black" stroke-width="4"/>
<rect id="Rectangle 363" x="1071" y="217" width="61" height="61" stroke="black" stroke-width="4"/>
<rect id="Rectangle 364" x="1137" y="217" width="61" height="61" stroke="black" stroke-width="4"/>
<rect id="Rectangle 365" x="1204" y="217" width="61" height="61" stroke="black" stroke-width="4"/>
<rect id="Rectangle 366" x="1270" y="217" width="61" height="61" stroke="black" stroke-width="4"/>
<rect id="Rectangle 367" x="1337" y="217" width="61" height="61" stroke="black" stroke-width="4"/>
<rect id="Rectangle 368" x="1403" y="217" width="61" height="61" stroke="black" stroke-width="4"/>
<rect id="Rectangle 369" x="1470" y="217" width="61" height="61" stroke="black" stroke-width="4"/>
<rect id="Rectangle 370" x="1536" y="217" width="61" height="61" stroke="black" stroke-width="4"/>
<rect id="Rectangle 371" x="1603" y="217" width="61" height="61" stroke="black" stroke-width="4"/>
<path id="Rectangle 372" d="M1669 217H1725V278H1669V217Z" stroke="black" stroke-width="4"/>
<path id="Rectangle 373" d="M201.943 212L219.649 151H267V212H201.943Z" stroke="black" stroke-width="4"/>
<rect id="Rectangle 374" x="273" y="151" width="61" height="61" stroke="black" stroke-width="4"/>
<rect id="Rectangle 375" x="339" y="151" width="61" height="61" stroke="black" stroke-width="4"/>
<rect id="Rectangle 376" x="406" y="151" width="61" height="61" stroke="black" stroke-width="4"/>
<rect id="Rectangle 377" x="472" y="151" width="61" height="61" stroke="black" stroke-width="4"/>
<rect id="Rectangle 378" x="539" y="151" width="61" height="61" stroke="black" stroke-width="4"/>
<rect id="Rectangle 379" x="605" y="151" width="61" height="61" stroke="black" stroke-width="4"/>
<rect id="Rectangle 380" x="672" y="151" width="61" height="61" stroke="black" stroke-width="4"/>
<rect id="Rectangle 381" x="738" y="151" width="61" height="61" stroke="black" stroke-width="4"/>
<rect id="Rectangle 382" x="805" y="151" width="61" height="61" stroke="black" stroke-width="4"/>
<rect id="Rectangle 383" x="871" y="151" width="61" height="61" stroke="black" stroke-width="4"/>
<rect id="Rectangle 384" x="938" y="151" width="61" height="61" stroke="black" stroke-width="4"/>
<rect id="Rectangle 385" x="1004" y="151" width="61" height="61" stroke="black" stroke-width="4"/>
<rect id="Rectangle 386" x="1071" y="151" width="61" height="61" stroke="black" stroke-width="4"/>
<rect id="Rectangle 387" x="1137" y="151" width="61" height="61" stroke="black" stroke-width="4"/>
<rect id="Rectangle 388" x="1204" y="151" width="61" height="61" stroke="black" stroke-width="4"/>
<rect id="Rectangle 389" x="1270" y="151" width="61" height="61" stroke="black" stroke-width="4"/>
<rect id="Rectangle 390" x="1337" y="151" width="61" height="61" stroke="black" stroke-width="4"/>
<rect id="Rectangle 391" x="1403" y="151" width="61" height="61" stroke="black" stroke-width="4"/>
<rect id="Rectangle 392" x="1470" y="151" width="61" height="61" stroke="black" stroke-width="4"/>
<rect id="Rectangle 393" x="1536" y="151" width="61" height="61" stroke="black" stroke-width="4"/>
<rect id="Rectangle 394" x="1603" y="151" width="61" height="61" stroke="black" stroke-width="4"/>
<path id="Rectangle 395" d="M1669 151H1725V212H1669V151Z" stroke="black" stroke-width="4"/>
<path id="Rectangle 396" d="M221.267 145.021L252.019 85H267V146H220.99L221.267 145.021Z" stroke="black" stroke-width="4"/>
<rect id="Rectangle 397" x="273" y="85" width="61" height="61" stroke="black" stroke-width="4"/>
<rect id="Rectangle 398" x="339" y="85" width="61" height="61" stroke="black" stroke-width="4"/>
<rect id="Rectangle 399" x="406" y="85" width="61" height="61" stroke="black" stroke-width="4"/>
<rect id="Rectangle 400" x="472" y="85" width="61" height="61" stroke="black" stroke-width="4"/>
<rect id="Rectangle 401" x="539" y="85" width="61" height="61" stroke="black" stroke-width="4"/>
<rect id="Rectangle 402" x="605" y="85" width="61" height="61" stroke="black" stroke-width="4"/>
<rect id="Rectangle 403" x="672" y="85" width="61" height="61" stroke="black" stroke-width="4"/>
<rect id="Rectangle 404" x="738" y="85" width="61" height="61" stroke="black" stroke-width="4"/>
<rect id="Rectangle 405" x="805" y="85" width="61" height="61" stroke="black" stroke-width="4"/>
<rect id="Rectangle 406" x="871" y="85" width="61" height="61" stroke="black" stroke-width="4"/>
<rect id="Rectangle 407" x="938" y="85" width="61" height="61" stroke="black" stroke-width="4"/>
<rect id="Rectangle 408" x="1004" y="85" width="61" height="61" stroke="black" stroke-width="4"/>
<rect id="Rectangle 409" x="1071" y="85" width="61" height="61" stroke="black" stroke-width="4"/>
<rect id="Rectangle 410" x="1137" y="85" width="61" height="61" stroke="black" stroke-width="4"/>
<rect id="Rectangle 411" x="1204" y="85" width="61" height="61" stroke="black" stroke-width="4"/>
<rect id="Rectangle 412" x="1270" y="85" width="61" height="61" stroke="black" stroke-width="4"/>
<rect id="Rectangle 413" x="1337" y="85" width="61" height="61" stroke="black" stroke-width="4"/>
<rect id="Rectangle 414" x="1403" y="85" width="61" height="61" stroke="black" stroke-width="4"/>
<rect id="Rectangle 415" x="1470" y="85" width="61" height="61" stroke="black" stroke-width="4"/>
<rect id="Rectangle 416" x="1536" y="85" width="61" height="61" stroke="black" stroke-width="4"/>
<rect id="Rectangle 417" x="1603" y="85" width="61" height="61" stroke="black" stroke-width="4"/>
<path id="Rectangle 418" d="M1669 85H1725V146H1669V85Z" stroke="black" stroke-width="4"/>
<path id="Rectangle 419" d="M256.575 76.0564L302.042 19H334V80H254.972L256.575 76.0564Z" stroke="black" stroke-width="4"/>
<rect id="Rectangle 420" x="339" y="19" width="61" height="61" stroke="black" stroke-width="4"/>
<rect id="Rectangle 421" x="406" y="19" width="61" height="61" stroke="black" stroke-width="4"/>
<rect id="Rectangle 422" x="472" y="19" width="61" height="61" stroke="black" stroke-width="4"/>
<rect id="Rectangle 423" x="539" y="19" width="61" height="61" stroke="black" stroke-width="4"/>
<rect id="Rectangle 424" x="605" y="19" width="61" height="61" stroke="black" stroke-width="4"/>
<rect id="Rectangle 425" x="672" y="19" width="61" height="61" stroke="black" stroke-width="4"/>
<rect id="Rectangle 426" x="738" y="19" width="61" height="61" stroke="black" stroke-width="4"/>
<rect id="Rectangle 427" x="805" y="19" width="61" height="61" stroke="black" stroke-width="4"/>
<rect id="Rectangle 428" x="871" y="19" width="61" height="61" stroke="black" stroke-width="4"/>
<rect id="Rectangle 429" x="938" y="19" width="61" height="61" stroke="black" stroke-width="4"/>
<rect id="Rectangle 430" x="1004" y="19" width="61" height="61" stroke="black" stroke-width="4"/>
<rect id="Rectangle 431" x="1071" y="19" width="61" height="61" stroke="black" stroke-width="4"/>
<rect id="Rectangle 432" x="1137" y="19" width="61" height="61" stroke="black" stroke-width="4"/>
<rect id="Rectangle 433" x="1204" y="19" width="61" height="61" stroke="black" stroke-width="4"/>
<rect id="Rectangle 434" x="1270" y="19" width="61" height="61" stroke="black" stroke-width="4"/>
<rect id="Rectangle 435" x="1337" y="19" width="61" height="61" stroke="black" stroke-width="4"/>
<rect id="Rectangle 436" x="1403" y="19" width="61" height="61" stroke="black" stroke-width="4"/>
<rect id="Rectangle 437" x="1470" y="19" width="61" height="61" stroke="black" stroke-width="4"/>
<rect id="Rectangle 438" x="1536" y="19" width="61" height="61" stroke="black" stroke-width="4"/>
<rect id="Rectangle 439" x="1603" y="19" width="61" height="61" stroke="black" stroke-width="4"/>
<path id="Rectangle 440" d="M1669 19H1725V80H1669V19Z" stroke="black" stroke-width="4"/>
</g>
</svg>
