<svg width="585" height="1352" viewBox="0 0 585 1352" fill="none">
<g id="marangay">
<path id="crop1" d="M252.44 38L259.64 2H295.56L288.36 38H252.44Z" stroke="black" stroke-width="4"/>
<path id="crop2" d="M293.44 38L300.64 2H336.56L329.36 38H293.44Z" stroke="black" stroke-width="4"/>
<path id="crop3" d="M334.44 38L341.64 2H377.56L370.36 38H334.44Z" stroke="black" stroke-width="4"/>
<path id="crop4" d="M375.44 38L382.64 2H418.56L411.36 38H375.44Z" stroke="black" stroke-width="4"/>
<path id="crop5" d="M416.44 38L423.64 2H459.56L452.36 38H416.44Z" stroke="black" stroke-width="4"/>
<path id="crop6" d="M457.44 38L464.64 2H500.56L493.36 38H457.44Z" stroke="black" stroke-width="4"/>
<path id="crop7" d="M498.44 38L505.64 2H541.56L534.36 38H498.44Z" stroke="black" stroke-width="4"/>
<path id="crop8" d="M539.44 38L546.64 2H582.56L575.36 38H539.44Z" stroke="black" stroke-width="4"/>
<path id="crop9" d="M244.44 79L251.64 43H287.56L280.36 79H244.44Z" stroke="black" stroke-width="4"/>
<path id="crop10" d="M285.44 79L292.64 43H328.56L321.36 79H285.44Z" stroke="black" stroke-width="4"/>
<path id="crop11" d="M326.44 79L333.64 43H369.56L362.36 79H326.44Z" stroke="black" stroke-width="4"/>
<path id="crop12" d="M367.44 79L374.64 43H410.56L403.36 79H367.44Z" stroke="black" stroke-width="4"/>
<path id="crop13" d="M408.44 79L415.64 43H451.56L444.36 79H408.44Z" stroke="black" stroke-width="4"/>
<path id="crop14" d="M449.44 79L456.64 43H492.56L485.36 79H449.44Z" stroke="black" stroke-width="4"/>
<path id="crop15" d="M490.44 79L497.64 43H533.56L526.36 79H490.44Z" stroke="black" stroke-width="4"/>
<path id="crop16" d="M531.44 79L538.64 43H574.56L567.36 79H531.44Z" stroke="black" stroke-width="4"/>
<path id="crop17" d="M236.44 120L243.64 84H279.56L272.36 120H236.44Z" stroke="black" stroke-width="4"/>
<path id="crop18" d="M277.44 120L284.64 84H320.56L313.36 120H277.44Z" stroke="black" stroke-width="4"/>
<path id="crop19" d="M318.44 120L325.64 84H361.56L354.36 120H318.44Z" stroke="black" stroke-width="4"/>
<path id="crop20" d="M359.44 120L366.64 84H402.56L395.36 120H359.44Z" stroke="black" stroke-width="4"/>
<path id="crop21" d="M400.44 120L407.64 84H443.56L436.36 120H400.44Z" stroke="black" stroke-width="4"/>
<path id="crop22" d="M441.44 120L448.64 84H484.56L477.36 120H441.44Z" stroke="black" stroke-width="4"/>
<path id="crop23" d="M482.44 120L489.64 84H525.56L518.36 120H482.44Z" stroke="black" stroke-width="4"/>
<path id="crop24" d="M523.44 120L530.64 84H566.56L559.36 120H523.44Z" stroke="black" stroke-width="4"/>
<path id="crop25" d="M228.44 161L235.64 125H271.56L264.36 161H228.44Z" stroke="black" stroke-width="4"/>
<path id="crop26" d="M269.44 161L276.64 125H312.56L305.36 161H269.44Z" stroke="black" stroke-width="4"/>
<path id="crop27" d="M310.44 161L317.64 125H353.56L346.36 161H310.44Z" stroke="black" stroke-width="4"/>
<path id="crop28" d="M351.44 161L358.64 125H394.56L387.36 161H351.44Z" stroke="black" stroke-width="4"/>
<path id="crop29" d="M392.44 161L399.64 125H435.56L428.36 161H392.44Z" stroke="black" stroke-width="4"/>
<path id="crop30" d="M433.44 161L440.64 125H476.56L469.36 161H433.44Z" stroke="black" stroke-width="4"/>
<path id="crop31" d="M474.44 161L481.64 125H517.56L510.36 161H474.44Z" stroke="black" stroke-width="4"/>
<path id="crop32" d="M515.44 161L522.64 125H558.56L551.36 161H515.44Z" stroke="black" stroke-width="4"/>
<path id="crop33" d="M221.44 202L228.64 166H264.56L257.36 202H221.44Z" stroke="black" stroke-width="4"/>
<path id="crop34" d="M262.44 202L269.64 166H305.56L298.36 202H262.44Z" stroke="black" stroke-width="4"/>
<path id="crop35" d="M303.44 202L310.64 166H346.56L339.36 202H303.44Z" stroke="black" stroke-width="4"/>
<path id="crop36" d="M344.44 202L351.64 166H387.56L380.36 202H344.44Z" stroke="black" stroke-width="4"/>
<path id="crop37" d="M385.44 202L392.64 166H428.56L421.36 202H385.44Z" stroke="black" stroke-width="4"/>
<path id="crop38" d="M426.44 202L433.64 166H469.56L462.36 202H426.44Z" stroke="black" stroke-width="4"/>
<path id="crop39" d="M467.44 202L474.64 166H510.56L503.36 202H467.44Z" stroke="black" stroke-width="4"/>
<path id="crop40" d="M508.44 202L515.64 166H551.56L544.36 202H508.44Z" stroke="black" stroke-width="4"/>
<path id="crop41" d="M213.44 243L220.64 207H256.56L249.36 243H213.44Z" stroke="black" stroke-width="4"/>
<path id="crop42" d="M254.44 243L261.64 207H297.56L290.36 243H254.44Z" stroke="black" stroke-width="4"/>
<path id="crop43" d="M295.44 243L302.64 207H338.56L331.36 243H295.44Z" stroke="black" stroke-width="4"/>
<path id="crop44" d="M336.44 243L343.64 207H379.56L372.36 243H336.44Z" stroke="black" stroke-width="4"/>
<path id="crop45" d="M377.44 243L384.64 207H420.56L413.36 243H377.44Z" stroke="black" stroke-width="4"/>
<path id="crop46" d="M418.44 243L425.64 207H461.56L454.36 243H418.44Z" stroke="black" stroke-width="4"/>
<path id="crop47" d="M459.44 243L466.64 207H502.56L495.36 243H459.44Z" stroke="black" stroke-width="4"/>
<path id="crop48" d="M500.44 243L507.64 207H543.56L536.36 243H500.44Z" stroke="black" stroke-width="4"/>
<path id="crop49" d="M205.44 284L212.64 248H248.56L241.36 284H205.44Z" stroke="black" stroke-width="4"/>
<path id="crop50" d="M246.44 284L253.64 248H289.56L282.36 284H246.44Z" stroke="black" stroke-width="4"/>
<path id="crop51" d="M287.44 284L294.64 248H330.56L323.36 284H287.44Z" stroke="black" stroke-width="4"/>
<path id="crop52" d="M328.44 284L335.64 248H371.56L364.36 284H328.44Z" stroke="black" stroke-width="4"/>
<path id="crop53" d="M369.44 284L376.64 248H412.56L405.36 284H369.44Z" stroke="black" stroke-width="4"/>
<path id="crop54" d="M410.44 284L417.64 248H453.56L446.36 284H410.44Z" stroke="black" stroke-width="4"/>
<path id="crop55" d="M451.44 284L458.64 248H494.56L487.36 284H451.44Z" stroke="black" stroke-width="4"/>
<path id="crop56" d="M492.44 284L499.64 248H535.56L528.36 284H492.44Z" stroke="black" stroke-width="4"/>
<path id="crop57" d="M197.44 325L204.64 289H240.56L233.36 325H197.44Z" stroke="black" stroke-width="4"/>
<path id="crop58" d="M238.44 325L245.64 289H281.56L274.36 325H238.44Z" stroke="black" stroke-width="4"/>
<path id="crop59" d="M279.44 325L286.64 289H322.56L315.36 325H279.44Z" stroke="black" stroke-width="4"/>
<path id="crop60" d="M320.44 325L327.64 289H363.56L356.36 325H320.44Z" stroke="black" stroke-width="4"/>
<path id="crop61" d="M361.44 325L368.64 289H404.56L397.36 325H361.44Z" stroke="black" stroke-width="4"/>
<path id="crop62" d="M402.44 325L409.64 289H445.56L438.36 325H402.44Z" stroke="black" stroke-width="4"/>
<path id="crop63" d="M443.44 325L450.64 289H486.56L479.36 325H443.44Z" stroke="black" stroke-width="4"/>
<path id="crop64" d="M484.44 325L491.64 289H527.56L520.36 325H484.44Z" stroke="black" stroke-width="4"/>
<path id="crop65" d="M189.44 366L196.64 330H232.56L225.36 366H189.44Z" stroke="black" stroke-width="4"/>
<path id="crop66" d="M230.44 366L237.64 330H273.56L266.36 366H230.44Z" stroke="black" stroke-width="4"/>
<path id="crop67" d="M271.44 366L278.64 330H314.56L307.36 366H271.44Z" stroke="black" stroke-width="4"/>
<path id="crop68" d="M312.44 366L319.64 330H355.56L348.36 366H312.44Z" stroke="black" stroke-width="4"/>
<path id="crop69" d="M353.44 366L360.64 330H396.56L389.36 366H353.44Z" stroke="black" stroke-width="4"/>
<path id="crop70" d="M394.44 366L401.64 330H437.56L430.36 366H394.44Z" stroke="black" stroke-width="4"/>
<path id="crop71" d="M435.44 366L442.64 330H478.56L471.36 366H435.44Z" stroke="black" stroke-width="4"/>
<path id="crop72" d="M476.44 366L483.64 330H519.56L512.36 366H476.44Z" stroke="black" stroke-width="4"/>
<path id="crop73" d="M181.44 407L188.64 371H224.56L217.36 407H181.44Z" stroke="black" stroke-width="4"/>
<path id="crop74" d="M222.44 407L229.64 371H265.56L258.36 407H222.44Z" stroke="black" stroke-width="4"/>
<path id="crop75" d="M263.44 407L270.64 371H306.56L299.36 407H263.44Z" stroke="black" stroke-width="4"/>
<path id="crop76" d="M304.44 407L311.64 371H347.56L340.36 407H304.44Z" stroke="black" stroke-width="4"/>
<path id="crop77" d="M345.44 407L352.64 371H388.56L381.36 407H345.44Z" stroke="black" stroke-width="4"/>
<path id="crop78" d="M386.44 407L393.64 371H429.56L422.36 407H386.44Z" stroke="black" stroke-width="4"/>
<path id="crop79" d="M427.44 407L434.64 371H470.56L463.36 407H427.44Z" stroke="black" stroke-width="4"/>
<path id="crop80" d="M468.44 407L475.64 371H511.56L504.36 407H468.44Z" stroke="black" stroke-width="4"/>
<path id="crop81" d="M173.44 448L180.64 412H216.56L209.36 448H173.44Z" stroke="black" stroke-width="4"/>
<path id="crop82" d="M214.44 448L221.64 412H257.56L250.36 448H214.44Z" stroke="black" stroke-width="4"/>
<path id="crop83" d="M255.44 448L262.64 412H298.56L291.36 448H255.44Z" stroke="black" stroke-width="4"/>
<path id="crop84" d="M296.44 448L303.64 412H339.56L332.36 448H296.44Z" stroke="black" stroke-width="4"/>
<path id="crop85" d="M337.44 448L344.64 412H380.56L373.36 448H337.44Z" stroke="black" stroke-width="4"/>
<path id="crop86" d="M378.44 448L385.64 412H421.56L414.36 448H378.44Z" stroke="black" stroke-width="4"/>
<path id="crop87" d="M419.44 448L426.64 412H462.56L455.36 448H419.44Z" stroke="black" stroke-width="4"/>
<path id="crop88" d="M460.44 448L467.64 412H503.56L496.36 448H460.44Z" stroke="black" stroke-width="4"/>
<path id="crop89" d="M165.44 489L172.64 453H208.56L201.36 489H165.44Z" stroke="black" stroke-width="4"/>
<path id="crop90" d="M206.44 489L213.64 453H249.56L242.36 489H206.44Z" stroke="black" stroke-width="4"/>
<path id="crop91" d="M247.44 489L254.64 453H290.56L283.36 489H247.44Z" stroke="black" stroke-width="4"/>
<path id="crop92" d="M288.44 489L295.64 453H331.56L324.36 489H288.44Z" stroke="black" stroke-width="4"/>
<path id="crop93" d="M329.44 489L336.64 453H372.56L365.36 489H329.44Z" stroke="black" stroke-width="4"/>
<path id="crop94" d="M370.44 489L377.64 453H413.56L406.36 489H370.44Z" stroke="black" stroke-width="4"/>
<path id="crop95" d="M411.44 489L418.64 453H454.56L447.36 489H411.44Z" stroke="black" stroke-width="4"/>
<path id="crop96" d="M452.44 489L459.64 453H495.56L488.36 489H452.44Z" stroke="black" stroke-width="4"/>
<path id="crop97" d="M158.44 530L165.64 494H201.56L194.36 530H158.44Z" stroke="black" stroke-width="4"/>
<path id="crop98" d="M199.44 530L206.64 494H242.56L235.36 530H199.44Z" stroke="black" stroke-width="4"/>
<path id="crop99" d="M240.44 530L247.64 494H283.56L276.36 530H240.44Z" stroke="black" stroke-width="4"/>
<path id="crop100" d="M281.44 530L288.64 494H324.56L317.36 530H281.44Z" stroke="black" stroke-width="4"/>
<path id="crop101" d="M322.44 530L329.64 494H365.56L358.36 530H322.44Z" stroke="black" stroke-width="4"/>
<path id="crop102" d="M363.44 530L370.64 494H406.56L399.36 530H363.44Z" stroke="black" stroke-width="4"/>
<path id="crop103" d="M404.44 530L411.64 494H447.56L440.36 530H404.44Z" stroke="black" stroke-width="4"/>
<path id="crop104" d="M445.44 530L452.64 494H488.56L481.36 530H445.44Z" stroke="black" stroke-width="4"/>
<path id="crop105" d="M150.44 571L157.64 535H193.56L186.36 571H150.44Z" stroke="black" stroke-width="4"/>
<path id="crop106" d="M191.44 571L198.64 535H234.56L227.36 571H191.44Z" stroke="black" stroke-width="4"/>
<path id="crop107" d="M232.44 571L239.64 535H275.56L268.36 571H232.44Z" stroke="black" stroke-width="4"/>
<path id="crop108" d="M273.44 571L280.64 535H316.56L309.36 571H273.44Z" stroke="black" stroke-width="4"/>
<path id="crop109" d="M314.44 571L321.64 535H357.56L350.36 571H314.44Z" stroke="black" stroke-width="4"/>
<path id="crop110" d="M355.44 571L362.64 535H398.56L391.36 571H355.44Z" stroke="black" stroke-width="4"/>
<path id="crop111" d="M396.44 571L403.64 535H439.56L432.36 571H396.44Z" stroke="black" stroke-width="4"/>
<path id="crop112" d="M437.44 571L444.64 535H480.56L473.36 571H437.44Z" stroke="black" stroke-width="4"/>
<path id="crop113" d="M142.44 612L149.64 576H185.56L178.36 612H142.44Z" stroke="black" stroke-width="4"/>
<path id="crop114" d="M183.44 612L190.64 576H226.56L219.36 612H183.44Z" stroke="black" stroke-width="4"/>
<path id="crop115" d="M224.44 612L231.64 576H267.56L260.36 612H224.44Z" stroke="black" stroke-width="4"/>
<path id="crop116" d="M265.44 612L272.64 576H308.56L301.36 612H265.44Z" stroke="black" stroke-width="4"/>
<path id="crop117" d="M306.44 612L313.64 576H349.56L342.36 612H306.44Z" stroke="black" stroke-width="4"/>
<path id="crop118" d="M347.44 612L354.64 576H390.56L383.36 612H347.44Z" stroke="black" stroke-width="4"/>
<path id="crop119" d="M388.44 612L395.64 576H431.56L424.36 612H388.44Z" stroke="black" stroke-width="4"/>
<path id="crop120" d="M429.44 612L436.64 576H472.56L465.36 612H429.44Z" stroke="black" stroke-width="4"/>
<path id="crop121" d="M134.44 653L141.64 617H177.56L170.36 653H134.44Z" stroke="black" stroke-width="4"/>
<path id="crop122" d="M175.44 653L182.64 617H218.56L211.36 653H175.44Z" stroke="black" stroke-width="4"/>
<path id="crop123" d="M216.44 653L223.64 617H259.56L252.36 653H216.44Z" stroke="black" stroke-width="4"/>
<path id="crop124" d="M257.44 653L264.64 617H300.56L293.36 653H257.44Z" stroke="black" stroke-width="4"/>
<path id="crop125" d="M298.44 653L305.64 617H341.56L334.36 653H298.44Z" stroke="black" stroke-width="4"/>
<path id="crop126" d="M339.44 653L346.64 617H382.56L375.36 653H339.44Z" stroke="black" stroke-width="4"/>
<path id="crop127" d="M380.44 653L387.64 617H423.56L416.36 653H380.44Z" stroke="black" stroke-width="4"/>
<path id="crop128" d="M421.44 653L428.64 617H464.56L457.36 653H421.44Z" stroke="black" stroke-width="4"/>
<path id="crop129" d="M126.44 694L133.64 658H169.56L162.36 694H126.44Z" stroke="black" stroke-width="4"/>
<path id="crop130" d="M167.44 694L174.64 658H210.56L203.36 694H167.44Z" stroke="black" stroke-width="4"/>
<path id="crop131" d="M208.44 694L215.64 658H251.56L244.36 694H208.44Z" stroke="black" stroke-width="4"/>
<path id="crop132" d="M249.44 694L256.64 658H292.56L285.36 694H249.44Z" stroke="black" stroke-width="4"/>
<path id="crop133" d="M290.44 694L297.64 658H333.56L326.36 694H290.44Z" stroke="black" stroke-width="4"/>
<path id="crop134" d="M331.44 694L338.64 658H374.56L367.36 694H331.44Z" stroke="black" stroke-width="4"/>
<path id="crop135" d="M372.44 694L379.64 658H415.56L408.36 694H372.44Z" stroke="black" stroke-width="4"/>
<path id="crop136" d="M413.44 694L420.64 658H456.56L449.36 694H413.44Z" stroke="black" stroke-width="4"/>
<path id="crop137" d="M118.44 735L125.64 699H161.56L154.36 735H118.44Z" stroke="black" stroke-width="4"/>
<path id="crop138" d="M159.44 735L166.64 699H202.56L195.36 735H159.44Z" stroke="black" stroke-width="4"/>
<path id="crop139" d="M200.44 735L207.64 699H243.56L236.36 735H200.44Z" stroke="black" stroke-width="4"/>
<path id="crop140" d="M241.44 735L248.64 699H284.56L277.36 735H241.44Z" stroke="black" stroke-width="4"/>
<path id="crop141" d="M282.44 735L289.64 699H325.56L318.36 735H282.44Z" stroke="black" stroke-width="4"/>
<path id="crop142" d="M323.44 735L330.64 699H366.56L359.36 735H323.44Z" stroke="black" stroke-width="4"/>
<path id="crop143" d="M364.44 735L371.64 699H407.56L400.36 735H364.44Z" stroke="black" stroke-width="4"/>
<path id="crop144" d="M405.44 735L412.64 699H448.56L441.36 735H405.44Z" stroke="black" stroke-width="4"/>
<path id="crop145" d="M110.44 776L117.64 740H153.56L146.36 776H110.44Z" stroke="black" stroke-width="4"/>
<path id="crop146" d="M151.44 776L158.64 740H194.56L187.36 776H151.44Z" stroke="black" stroke-width="4"/>
<path id="crop147" d="M192.44 776L199.64 740H235.56L228.36 776H192.44Z" stroke="black" stroke-width="4"/>
<path id="crop148" d="M233.44 776L240.64 740H276.56L269.36 776H233.44Z" stroke="black" stroke-width="4"/>
<path id="crop149" d="M274.44 776L281.64 740H317.56L310.36 776H274.44Z" stroke="black" stroke-width="4"/>
<path id="crop150" d="M315.44 776L322.64 740H358.56L351.36 776H315.44Z" stroke="black" stroke-width="4"/>
<path id="crop151" d="M356.44 776L363.64 740H399.56L392.36 776H356.44Z" stroke="black" stroke-width="4"/>
<path id="crop152" d="M397.44 776L404.64 740H440.56L433.36 776H397.44Z" stroke="black" stroke-width="4"/>
<path id="crop153" d="M102.44 817L109.64 781H145.56L138.36 817H102.44Z" stroke="black" stroke-width="4"/>
<path id="crop154" d="M143.44 817L150.64 781H186.56L179.36 817H143.44Z" stroke="black" stroke-width="4"/>
<path id="crop155" d="M184.44 817L191.64 781H227.56L220.36 817H184.44Z" stroke="black" stroke-width="4"/>
<path id="crop156" d="M225.44 817L232.64 781H268.56L261.36 817H225.44Z" stroke="black" stroke-width="4"/>
<path id="crop157" d="M266.44 817L273.64 781H309.56L302.36 817H266.44Z" stroke="black" stroke-width="4"/>
<path id="crop158" d="M307.44 817L314.64 781H350.56L343.36 817H307.44Z" stroke="black" stroke-width="4"/>
<path id="crop159" d="M348.44 817L355.64 781H391.56L384.36 817H348.44Z" stroke="black" stroke-width="4"/>
<path id="crop160" d="M389.44 817L396.64 781H432.56L425.36 817H389.44Z" stroke="black" stroke-width="4"/>
<path id="crop161" d="M94.4396 858L101.64 822H137.56L130.36 858H94.4396Z" stroke="black" stroke-width="4"/>
<path id="crop162" d="M135.44 858L142.64 822H178.56L171.36 858H135.44Z" stroke="black" stroke-width="4"/>
<path id="crop163" d="M176.44 858L183.64 822H219.56L212.36 858H176.44Z" stroke="black" stroke-width="4"/>
<path id="crop164" d="M217.44 858L224.64 822H260.56L253.36 858H217.44Z" stroke="black" stroke-width="4"/>
<path id="crop165" d="M258.44 858L265.64 822H301.56L294.36 858H258.44Z" stroke="black" stroke-width="4"/>
<path id="crop166" d="M299.44 858L306.64 822H342.56L335.36 858H299.44Z" stroke="black" stroke-width="4"/>
<path id="crop167" d="M340.44 858L347.64 822H383.56L376.36 858H340.44Z" stroke="black" stroke-width="4"/>
<path id="crop168" d="M381.44 858L388.64 822H424.56L417.36 858H381.44Z" stroke="black" stroke-width="4"/>
<path id="crop169" d="M86.4396 899L93.6396 863H129.56L122.36 899H86.4396Z" stroke="black" stroke-width="4"/>
<path id="crop170" d="M127.44 899L134.64 863H170.56L163.36 899H127.44Z" stroke="black" stroke-width="4"/>
<path id="crop171" d="M168.44 899L175.64 863H211.56L204.36 899H168.44Z" stroke="black" stroke-width="4"/>
<path id="crop172" d="M209.44 899L216.64 863H252.56L245.36 899H209.44Z" stroke="black" stroke-width="4"/>
<path id="crop173" d="M250.44 899L257.64 863H293.56L286.36 899H250.44Z" stroke="black" stroke-width="4"/>
<path id="crop174" d="M291.44 899L298.64 863H334.56L327.36 899H291.44Z" stroke="black" stroke-width="4"/>
<path id="crop175" d="M332.44 899L339.64 863H375.56L368.36 899H332.44Z" stroke="black" stroke-width="4"/>
<path id="crop176" d="M373.44 899L380.64 863H416.56L409.36 899H373.44Z" stroke="black" stroke-width="4"/>
<path id="crop177" d="M78.4396 940L85.6396 904H121.56L114.36 940H78.4396Z" stroke="black" stroke-width="4"/>
<path id="crop178" d="M119.44 940L126.64 904H162.56L155.36 940H119.44Z" stroke="black" stroke-width="4"/>
<path id="crop179" d="M160.44 940L167.64 904H203.56L196.36 940H160.44Z" stroke="black" stroke-width="4"/>
<path id="crop180" d="M201.44 940L208.64 904H244.56L237.36 940H201.44Z" stroke="black" stroke-width="4"/>
<path id="crop181" d="M242.44 940L249.64 904H285.56L278.36 940H242.44Z" stroke="black" stroke-width="4"/>
<path id="crop182" d="M283.44 940L290.64 904H326.56L319.36 940H283.44Z" stroke="black" stroke-width="4"/>
<path id="crop183" d="M324.44 940L331.64 904H367.56L360.36 940H324.44Z" stroke="black" stroke-width="4"/>
<path id="crop184" d="M365.44 940L372.64 904H408.56L401.36 940H365.44Z" stroke="black" stroke-width="4"/>
<path id="crop185" d="M70.4396 981L77.6396 945H113.56L106.36 981H70.4396Z" stroke="black" stroke-width="4"/>
<path id="crop186" d="M111.44 981L118.64 945H154.56L147.36 981H111.44Z" stroke="black" stroke-width="4"/>
<path id="crop187" d="M152.44 981L159.64 945H195.56L188.36 981H152.44Z" stroke="black" stroke-width="4"/>
<path id="crop188" d="M193.44 981L200.64 945H236.56L229.36 981H193.44Z" stroke="black" stroke-width="4"/>
<path id="crop189" d="M234.44 981L241.64 945H277.56L270.36 981H234.44Z" stroke="black" stroke-width="4"/>
<path id="crop190" d="M275.44 981L282.64 945H318.56L311.36 981H275.44Z" stroke="black" stroke-width="4"/>
<path id="crop191" d="M316.44 981L323.64 945H359.56L352.36 981H316.44Z" stroke="black" stroke-width="4"/>
<path id="crop192" d="M357.44 981L364.64 945H400.56L393.36 981H357.44Z" stroke="black" stroke-width="4"/>
<path id="crop193" d="M62.4396 1022L69.6396 986H105.56L98.3604 1022H62.4396Z" stroke="black" stroke-width="4"/>
<path id="crop194" d="M103.44 1022L110.64 986H146.56L139.36 1022H103.44Z" stroke="black" stroke-width="4"/>
<path id="crop195" d="M144.44 1022L151.64 986H187.56L180.36 1022H144.44Z" stroke="black" stroke-width="4"/>
<path id="crop196" d="M185.44 1022L192.64 986H228.56L221.36 1022H185.44Z" stroke="black" stroke-width="4"/>
<path id="crop197" d="M226.44 1022L233.64 986H269.56L262.36 1022H226.44Z" stroke="black" stroke-width="4"/>
<path id="crop198" d="M267.44 1022L274.64 986H310.56L303.36 1022H267.44Z" stroke="black" stroke-width="4"/>
<path id="crop199" d="M308.44 1022L315.64 986H351.56L344.36 1022H308.44Z" stroke="black" stroke-width="4"/>
<path id="crop200" d="M349.44 1022L356.64 986H392.56L385.36 1022H349.44Z" stroke="black" stroke-width="4"/>
<path id="crop201" d="M54.4396 1063L61.6396 1027H97.5604L90.3604 1063H54.4396Z" stroke="black" stroke-width="4"/>
<path id="crop202" d="M95.4396 1063L102.64 1027H138.56L131.36 1063H95.4396Z" stroke="black" stroke-width="4"/>
<path id="crop203" d="M136.44 1063L143.64 1027H179.56L172.36 1063H136.44Z" stroke="black" stroke-width="4"/>
<path id="crop204" d="M177.44 1063L184.64 1027H220.56L213.36 1063H177.44Z" stroke="black" stroke-width="4"/>
<path id="crop205" d="M218.44 1063L225.64 1027H261.56L254.36 1063H218.44Z" stroke="black" stroke-width="4"/>
<path id="crop206" d="M259.44 1063L266.64 1027H302.56L295.36 1063H259.44Z" stroke="black" stroke-width="4"/>
<path id="crop207" d="M300.44 1063L307.64 1027H343.56L336.36 1063H300.44Z" stroke="black" stroke-width="4"/>
<path id="crop208" d="M341.44 1063L348.64 1027H384.56L377.36 1063H341.44Z" stroke="black" stroke-width="4"/>
<path id="crop209" d="M46.4396 1104L53.6396 1068H89.5604L82.3604 1104H46.4396Z" stroke="black" stroke-width="4"/>
<path id="crop210" d="M87.4396 1104L94.6396 1068H130.56L123.36 1104H87.4396Z" stroke="black" stroke-width="4"/>
<path id="crop211" d="M128.44 1104L135.64 1068H171.56L164.36 1104H128.44Z" stroke="black" stroke-width="4"/>
<path id="crop212" d="M169.44 1104L176.64 1068H212.56L205.36 1104H169.44Z" stroke="black" stroke-width="4"/>
<path id="crop213" d="M210.44 1104L217.64 1068H253.56L246.36 1104H210.44Z" stroke="black" stroke-width="4"/>
<path id="crop214" d="M251.44 1104L258.64 1068H294.56L287.36 1104H251.44Z" stroke="black" stroke-width="4"/>
<path id="crop215" d="M292.44 1104L299.64 1068H335.56L328.36 1104H292.44Z" stroke="black" stroke-width="4"/>
<path id="crop216" d="M333.44 1104L340.64 1068H376.56L369.36 1104H333.44Z" stroke="black" stroke-width="4"/>
<path id="crop217" d="M38.4396 1145L45.6396 1109H81.5604L74.3604 1145H38.4396Z" stroke="black" stroke-width="4"/>
<path id="crop218" d="M79.4396 1145L86.6396 1109H122.56L115.36 1145H79.4396Z" stroke="black" stroke-width="4"/>
<path id="crop219" d="M120.44 1145L127.64 1109H163.56L156.36 1145H120.44Z" stroke="black" stroke-width="4"/>
<path id="crop220" d="M161.44 1145L168.64 1109H204.56L197.36 1145H161.44Z" stroke="black" stroke-width="4"/>
<path id="crop221" d="M202.44 1145L209.64 1109H245.56L238.36 1145H202.44Z" stroke="black" stroke-width="4"/>
<path id="crop222" d="M243.44 1145L250.64 1109H286.56L279.36 1145H243.44Z" stroke="black" stroke-width="4"/>
<path id="crop223" d="M284.44 1145L291.64 1109H327.56L320.36 1145H284.44Z" stroke="black" stroke-width="4"/>
<path id="crop224" d="M325.44 1145L332.64 1109H368.56L361.36 1145H325.44Z" stroke="black" stroke-width="4"/>
<path id="crop225" d="M30.4396 1186L37.6396 1150H73.5604L66.3604 1186H30.4396Z" stroke="black" stroke-width="4"/>
<path id="crop226" d="M71.4396 1186L78.6396 1150H114.56L107.36 1186H71.4396Z" stroke="black" stroke-width="4"/>
<path id="crop227" d="M112.44 1186L119.64 1150H155.56L148.36 1186H112.44Z" stroke="black" stroke-width="4"/>
<path id="crop228" d="M153.44 1186L160.64 1150H196.56L189.36 1186H153.44Z" stroke="black" stroke-width="4"/>
<path id="crop229" d="M194.44 1186L201.64 1150H237.56L230.36 1186H194.44Z" stroke="black" stroke-width="4"/>
<path id="crop230" d="M235.44 1186L242.64 1150H278.56L271.36 1186H235.44Z" stroke="black" stroke-width="4"/>
<path id="crop231" d="M276.44 1186L283.64 1150H319.56L312.36 1186H276.44Z" stroke="black" stroke-width="4"/>
<path id="crop232" d="M317.44 1186L324.64 1150H360.56L353.36 1186H317.44Z" stroke="black" stroke-width="4"/>
<path id="crop233" d="M22.4396 1227L29.6396 1191H65.5604L58.3604 1227H22.4396Z" stroke="black" stroke-width="4"/>
<path id="crop234" d="M63.4396 1227L70.6396 1191H106.56L99.3604 1227H63.4396Z" stroke="black" stroke-width="4"/>
<path id="crop235" d="M104.44 1227L111.64 1191H147.56L140.36 1227H104.44Z" stroke="black" stroke-width="4"/>
<path id="crop236" d="M145.44 1227L152.64 1191H188.56L181.36 1227H145.44Z" stroke="black" stroke-width="4"/>
<path id="crop237" d="M186.44 1227L193.64 1191H229.56L222.36 1227H186.44Z" stroke="black" stroke-width="4"/>
<path id="crop238" d="M227.44 1227L234.64 1191H270.56L263.36 1227H227.44Z" stroke="black" stroke-width="4"/>
<path id="crop239" d="M268.44 1227L275.64 1191H311.56L304.36 1227H268.44Z" stroke="black" stroke-width="4"/>
<path id="crop240" d="M309.44 1227L316.64 1191H352.56L345.36 1227H309.44Z" stroke="black" stroke-width="4"/>
<path id="crop241" d="M14.4396 1268L21.6396 1232H57.5604L50.3604 1268H14.4396Z" stroke="black" stroke-width="4"/>
<path id="crop242" d="M55.4396 1268L62.6396 1232H98.5604L91.3604 1268H55.4396Z" stroke="black" stroke-width="4"/>
<path id="crop243" d="M96.4396 1268L103.64 1232H139.56L132.36 1268H96.4396Z" stroke="black" stroke-width="4"/>
<path id="crop244" d="M137.44 1268L144.64 1232H180.56L173.36 1268H137.44Z" stroke="black" stroke-width="4"/>
<path id="crop245" d="M178.44 1268L185.64 1232H221.56L214.36 1268H178.44Z" stroke="black" stroke-width="4"/>
<path id="crop246" d="M219.44 1268L226.64 1232H262.56L255.36 1268H219.44Z" stroke="black" stroke-width="4"/>
<path id="crop247" d="M260.44 1268L267.64 1232H303.56L296.36 1268H260.44Z" stroke="black" stroke-width="4"/>
<path id="crop248" d="M301.44 1268L308.64 1232H344.56L337.36 1268H301.44Z" stroke="black" stroke-width="4"/>
<path id="crop249" d="M6.43961 1309L13.6396 1273H49.5604L42.3604 1309H6.43961Z" stroke="black" stroke-width="4"/>
<path id="crop250" d="M47.4396 1309L54.6396 1273H90.5604L83.3604 1309H47.4396Z" stroke="black" stroke-width="4"/>
<path id="crop251" d="M88.4396 1309L95.6396 1273H131.56L124.36 1309H88.4396Z" stroke="black" stroke-width="4"/>
<path id="crop252" d="M129.44 1309L136.64 1273H172.56L165.36 1309H129.44Z" stroke="black" stroke-width="4"/>
<path id="crop253" d="M170.44 1309L177.64 1273H213.56L206.36 1309H170.44Z" stroke="black" stroke-width="4"/>
<path id="crop254" d="M211.44 1309L218.64 1273H254.56L247.36 1309H211.44Z" stroke="black" stroke-width="4"/>
<path id="crop255" d="M252.44 1309L259.64 1273H295.56L288.36 1309H252.44Z" stroke="black" stroke-width="4"/>
<path id="crop256" d="M293.44 1309L300.64 1273H336.694L333.631 1294.44L315.788 1309H293.44Z" stroke="black" stroke-width="4"/>
<path id="crop257" d="M2.09725 1335.58L5.69425 1314H41.5604L34.3604 1350H11.1085L2.09725 1335.58Z" stroke="black" stroke-width="4"/>
<path id="crop258" d="M39.4396 1350L46.6396 1314H82.5604L75.3604 1350H39.4396Z" stroke="black" stroke-width="4"/>
<path id="crop259" d="M80.4396 1350L87.6396 1314H123.56L116.36 1350H80.4396Z" stroke="black" stroke-width="4"/>
<path id="crop260" d="M121.44 1350L128.64 1314H164.56L157.36 1350H121.44Z" stroke="black" stroke-width="4"/>
<path id="crop261" d="M162.44 1350L169.64 1314H205.56L198.36 1350H162.44Z" stroke="black" stroke-width="4"/>
<path id="crop262" d="M203.497 1349.71L210.64 1314H246.567L240.322 1345.67L203.497 1349.71Z" stroke="black" stroke-width="4"/>
<path id="crop263" d="M245.57 1344.81L251.644 1314H287.426L281.858 1335.85L245.57 1344.81Z" stroke="black" stroke-width="4"/>
</g>
</svg>
